<svg width="1120" height="20" viewBox="0 0 1120 20" fill="none" xmlns="http://www.w3.org/2000/svg">
<path d="M7.99996 5.16669L9.16663 8.83335H12.8333L9.83329 11.1667L10.8333 14.8334L7.99996 12.5L5.16663 14.8334L6.16663 11.1667L3.16663 8.83335H6.83329L7.99996 5.16669Z" stroke="#DE3151" stroke-width="1.5" stroke-linecap="round" stroke-linejoin="round"/>
<path d="M24.6335 4.81818V15H23.4006V6.1108H23.3409L20.8551 7.76136V6.50852L23.4006 4.81818H24.6335ZM27.5618 15V14.1051L30.9226 10.4261C31.317 9.99526 31.6418 9.62074 31.897 9.30256C32.1522 8.98106 32.3411 8.67945 32.4638 8.39773C32.5897 8.11269 32.6527 7.81439 32.6527 7.50284C32.6527 7.14489 32.5665 6.83499 32.3942 6.57315C32.2251 6.31132 31.9931 6.10914 31.6982 5.96662C31.4032 5.8241 31.0717 5.75284 30.7038 5.75284C30.3127 5.75284 29.9714 5.83404 29.6797 5.99645C29.3913 6.15554 29.1676 6.37926 29.0085 6.66761C28.8527 6.95597 28.7749 7.29403 28.7749 7.68182H27.6016C27.6016 7.08523 27.7391 6.56155 28.0142 6.1108C28.2893 5.66004 28.6638 5.30871 29.1378 5.05682C29.6151 4.80492 30.1503 4.67898 30.7436 4.67898C31.3402 4.67898 31.8688 4.80492 32.3295 5.05682C32.7902 5.30871 33.1515 5.64844 33.4134 6.07599C33.6752 6.50355 33.8061 6.97917 33.8061 7.50284C33.8061 7.87737 33.7382 8.24361 33.6023 8.60156C33.4697 8.9562 33.2377 9.35227 32.9062 9.78977C32.5781 10.224 32.1224 10.7543 31.5391 11.3807L29.2521 13.8267V13.9062H33.9851V15H27.5618ZM40.1548 15V4.81818H43.5952C44.3906 4.81818 45.0436 4.95407 45.554 5.22585C46.0644 5.49432 46.4422 5.86387 46.6875 6.33452C46.9328 6.80516 47.0554 7.34044 47.0554 7.94034C47.0554 8.54025 46.9328 9.07221 46.6875 9.53622C46.4422 10.0002 46.0661 10.3648 45.5589 10.63C45.0518 10.8918 44.4039 11.0227 43.6151 11.0227H40.831V9.90909H43.5753C44.1188 9.90909 44.5563 9.82955 44.8878 9.67045C45.2225 9.51136 45.4645 9.28598 45.6136 8.99432C45.7661 8.69934 45.8423 8.34801 45.8423 7.94034C45.8423 7.53267 45.7661 7.17637 45.6136 6.87145C45.4612 6.56652 45.2176 6.3312 44.8828 6.16548C44.5481 5.99645 44.1056 5.91193 43.5554 5.91193H41.3878V15H40.1548ZM44.9474 10.4261L47.4531 15H46.0213L43.5554 10.4261H44.9474ZM52.0705 15.1591C51.3347 15.1591 50.7 14.9967 50.1664 14.6719C49.6361 14.3438 49.2267 13.8864 48.9384 13.2997C48.6533 12.7098 48.5108 12.0237 48.5108 11.2415C48.5108 10.4593 48.6533 9.76989 48.9384 9.1733C49.2267 8.57339 49.6278 8.10606 50.1415 7.77131C50.6586 7.43324 51.2618 7.2642 51.9512 7.2642C52.3489 7.2642 52.7417 7.33049 53.1294 7.46307C53.5172 7.59564 53.8702 7.81108 54.1884 8.10938C54.5066 8.40436 54.7601 8.79545 54.949 9.28267C55.138 9.76989 55.2324 10.3698 55.2324 11.0824V11.5795H49.3461V10.5653H54.0392C54.0392 10.1345 53.9531 9.75 53.7807 9.41193C53.6117 9.07386 53.3697 8.80705 53.0549 8.61151C52.7433 8.41596 52.3754 8.31818 51.9512 8.31818C51.4838 8.31818 51.0795 8.43419 50.7381 8.66619C50.4 8.89489 50.1399 9.19318 49.9576 9.56108C49.7753 9.92898 49.6841 10.3234 49.6841 10.7443V11.4205C49.6841 11.9972 49.7836 12.486 49.9824 12.8871C50.1846 13.2848 50.4647 13.5881 50.8226 13.7969C51.1806 14.0024 51.5965 14.1051 52.0705 14.1051C52.3787 14.1051 52.6571 14.062 52.9057 13.9759C53.1576 13.8864 53.3747 13.7538 53.557 13.5781C53.7393 13.3991 53.8801 13.1771 53.9796 12.9119L55.1131 13.2301C54.9938 13.6146 54.7933 13.9527 54.5115 14.2443C54.2298 14.5327 53.8818 14.758 53.4675 14.9205C53.0532 15.0795 52.5875 15.1591 52.0705 15.1591ZM63.0291 7.36364L60.2053 15H59.0121L56.1882 7.36364H57.4609L59.5689 13.4489H59.6484L61.7564 7.36364H63.0291ZM64.5778 15V7.36364H65.7511V15H64.5778ZM65.1744 6.09091C64.9457 6.09091 64.7485 6.01302 64.5827 5.85724C64.4203 5.70147 64.3391 5.5142 64.3391 5.29545C64.3391 5.0767 64.4203 4.88944 64.5827 4.73366C64.7485 4.57789 64.9457 4.5 65.1744 4.5C65.4031 4.5 65.5986 4.57789 65.761 4.73366C65.9267 4.88944 66.0096 5.0767 66.0096 5.29545C66.0096 5.5142 65.9267 5.70147 65.761 5.85724C65.5986 6.01302 65.4031 6.09091 65.1744 6.09091ZM71.1017 15.1591C70.3659 15.1591 69.7312 14.9967 69.1976 14.6719C68.6673 14.3438 68.258 13.8864 67.9696 13.2997C67.6846 12.7098 67.5421 12.0237 67.5421 11.2415C67.5421 10.4593 67.6846 9.76989 67.9696 9.1733C68.258 8.57339 68.659 8.10606 69.1728 7.77131C69.6898 7.43324 70.293 7.2642 70.9824 7.2642C71.3801 7.2642 71.7729 7.33049 72.1607 7.46307C72.5485 7.59564 72.9015 7.81108 73.2196 8.10938C73.5378 8.40436 73.7914 8.79545 73.9803 9.28267C74.1692 9.76989 74.2637 10.3698 74.2637 11.0824V11.5795H68.3773V10.5653H73.0705C73.0705 10.1345 72.9843 9.75 72.812 9.41193C72.6429 9.07386 72.401 8.80705 72.0861 8.61151C71.7746 8.41596 71.4067 8.31818 70.9824 8.31818C70.5151 8.31818 70.1107 8.43419 69.7694 8.66619C69.4313 8.89489 69.1711 9.19318 68.9888 9.56108C68.8065 9.92898 68.7154 10.3234 68.7154 10.7443V11.4205C68.7154 11.9972 68.8148 12.486 69.0137 12.8871C69.2158 13.2848 69.4959 13.5881 69.8539 13.7969C70.2118 14.0024 70.6278 14.1051 71.1017 14.1051C71.41 14.1051 71.6884 14.062 71.937 13.9759C72.1889 13.8864 72.406 13.7538 72.5882 13.5781C72.7705 13.3991 72.9114 13.1771 73.0108 12.9119L74.1444 13.2301C74.025 13.6146 73.8245 13.9527 73.5428 14.2443C73.2611 14.5327 72.9131 14.758 72.4988 14.9205C72.0845 15.0795 71.6188 15.1591 71.1017 15.1591ZM77.7786 15L75.4519 7.36364H76.6848L78.3354 13.2102H78.415L80.0456 7.36364H81.2985L82.9093 13.1903H82.9888L84.6394 7.36364H85.8723L83.5456 15H82.3922L80.7218 9.13352H80.6025L78.932 15H77.7786ZM92.8326 9.07386L91.7786 9.37216C91.7123 9.1965 91.6145 9.0258 91.4853 8.86009C91.3593 8.69105 91.187 8.55185 90.9682 8.44247C90.7495 8.3331 90.4694 8.27841 90.128 8.27841C89.6607 8.27841 89.2712 8.38613 88.9597 8.60156C88.6515 8.81368 88.4973 9.08381 88.4973 9.41193C88.4973 9.7036 88.6034 9.93395 88.8155 10.103C89.0276 10.272 89.3591 10.4129 89.8098 10.5256L90.9434 10.804C91.6261 10.9697 92.1349 11.2232 92.4696 11.5646C92.8044 11.9027 92.9718 12.3385 92.9718 12.8722C92.9718 13.3097 92.8458 13.7008 92.5939 14.0455C92.3453 14.3902 91.9973 14.6619 91.5499 14.8608C91.1025 15.0597 90.5821 15.1591 89.9888 15.1591C89.2099 15.1591 88.5653 14.9901 88.0549 14.652C87.5444 14.3139 87.2213 13.8201 87.0854 13.1705L88.199 12.892C88.3051 13.303 88.5056 13.6113 88.8006 13.8168C89.0989 14.0223 89.4883 14.125 89.9689 14.125C90.5158 14.125 90.95 14.009 91.2715 13.777C91.5963 13.5417 91.7587 13.2599 91.7587 12.9318C91.7587 12.6667 91.6659 12.4446 91.4803 12.2656C91.2947 12.0833 91.0096 11.9474 90.6252 11.858L89.3525 11.5597C88.6531 11.3939 88.1394 11.1371 87.8113 10.7891C87.4864 10.4377 87.324 9.99858 87.324 9.47159C87.324 9.04072 87.445 8.65956 87.687 8.32812C87.9322 7.99669 88.2653 7.73651 88.6863 7.54758C89.1105 7.35866 89.5911 7.2642 90.128 7.2642C90.8837 7.2642 91.477 7.42992 91.9078 7.76136C92.342 8.0928 92.6503 8.5303 92.8326 9.07386Z" fill="black"/>
<path d="M126 5.16669L121.167 7.33335C121.167 7.33335 120.667 14.8334 126 14.8334C131.333 14.8334 130.833 7.33335 130.833 7.33335L126 5.16669Z" stroke="#DE3151" stroke-width="1.5" stroke-linecap="round" stroke-linejoin="round"/>
<path d="M124.5 10.5L125.333 11.5L127.5 8.5" stroke="#DE3151" stroke-width="1.5" stroke-linecap="round" stroke-linejoin="round"/>
<path d="M140.466 4.81818V15H139.233V4.81818H140.466ZM145.662 15.1591C145.026 15.1591 144.464 14.9983 143.977 14.6768C143.49 14.352 143.109 13.8946 142.834 13.3047C142.559 12.7114 142.421 12.0104 142.421 11.2017C142.421 10.3996 142.559 9.7036 142.834 9.11364C143.109 8.52367 143.492 8.06794 143.982 7.74645C144.473 7.42495 145.039 7.2642 145.682 7.2642C146.18 7.2642 146.572 7.34706 146.861 7.51278C147.152 7.67519 147.374 7.8608 147.527 8.0696C147.683 8.27509 147.804 8.44413 147.89 8.5767H147.989V4.81818H149.162V15H148.029V13.8267H147.89C147.804 13.9659 147.681 14.1416 147.522 14.3537C147.363 14.5625 147.136 14.7498 146.841 14.9155C146.546 15.0779 146.153 15.1591 145.662 15.1591ZM145.822 14.1051C146.292 14.1051 146.69 13.9825 147.015 13.7372C147.34 13.4886 147.586 13.1456 147.756 12.7081C147.925 12.2673 148.009 11.7585 148.009 11.1818C148.009 10.6117 147.926 10.1129 147.76 9.68537C147.595 9.2545 147.349 8.91974 147.025 8.68111C146.7 8.43916 146.299 8.31818 145.822 8.31818C145.324 8.31818 144.91 8.44579 144.579 8.70099C144.251 8.95289 144.004 9.29593 143.838 9.73011C143.675 10.161 143.594 10.6449 143.594 11.1818C143.594 11.7254 143.677 12.2192 143.843 12.6634C144.012 13.1042 144.26 13.4555 144.589 13.7173C144.92 13.9759 145.331 14.1051 145.822 14.1051ZM154.676 15.1591C153.94 15.1591 153.305 14.9967 152.772 14.6719C152.242 14.3438 151.832 13.8864 151.544 13.2997C151.259 12.7098 151.116 12.0237 151.116 11.2415C151.116 10.4593 151.259 9.76989 151.544 9.1733C151.832 8.57339 152.233 8.10606 152.747 7.77131C153.264 7.43324 153.867 7.2642 154.557 7.2642C154.954 7.2642 155.347 7.33049 155.735 7.46307C156.123 7.59564 156.476 7.81108 156.794 8.10938C157.112 8.40436 157.366 8.79545 157.555 9.28267C157.743 9.76989 157.838 10.3698 157.838 11.0824V11.5795H151.952V10.5653H156.645C156.645 10.1345 156.559 9.75 156.386 9.41193C156.217 9.07386 155.975 8.80705 155.66 8.61151C155.349 8.41596 154.981 8.31818 154.557 8.31818C154.089 8.31818 153.685 8.43419 153.344 8.66619C153.006 8.89489 152.745 9.19318 152.563 9.56108C152.381 9.92898 152.29 10.3234 152.29 10.7443V11.4205C152.29 11.9972 152.389 12.486 152.588 12.8871C152.79 13.2848 153.07 13.5881 153.428 13.7969C153.786 14.0024 154.202 14.1051 154.676 14.1051C154.984 14.1051 155.263 14.062 155.511 13.9759C155.763 13.8864 155.98 13.7538 156.162 13.5781C156.345 13.3991 156.486 13.1771 156.585 12.9119L157.719 13.2301C157.599 13.6146 157.399 13.9527 157.117 14.2443C156.835 14.5327 156.487 14.758 156.073 14.9205C155.659 15.0795 155.193 15.1591 154.676 15.1591ZM160.796 10.4062V15H159.623V7.36364H160.756V8.55682H160.856C161.035 8.16903 161.306 7.85748 161.671 7.62216C162.036 7.38352 162.506 7.2642 163.083 7.2642C163.6 7.2642 164.052 7.37027 164.44 7.58239C164.828 7.79119 165.13 8.10938 165.345 8.53693C165.56 8.96117 165.668 9.49811 165.668 10.1477V15H164.495V10.2273C164.495 9.62737 164.339 9.16004 164.028 8.82528C163.716 8.48722 163.288 8.31818 162.745 8.31818C162.37 8.31818 162.036 8.39938 161.741 8.56179C161.449 8.72419 161.219 8.96117 161.05 9.27273C160.881 9.58428 160.796 9.96212 160.796 10.4062ZM171.133 7.36364V8.35795H167.176V7.36364H171.133ZM168.329 5.53409H169.502V12.8125C169.502 13.1439 169.551 13.3925 169.647 13.5582C169.746 13.7206 169.872 13.83 170.025 13.8864C170.18 13.9394 170.344 13.9659 170.517 13.9659C170.646 13.9659 170.752 13.9593 170.835 13.946C170.918 13.9295 170.984 13.9162 171.034 13.9062L171.272 14.9602C171.193 14.9901 171.082 15.0199 170.939 15.0497C170.797 15.0829 170.616 15.0994 170.397 15.0994C170.066 15.0994 169.741 15.0282 169.423 14.8857C169.108 14.7431 168.846 14.526 168.637 14.2344C168.432 13.9427 168.329 13.5748 168.329 13.1307V5.53409ZM172.898 15V7.36364H174.071V15H172.898ZM173.495 6.09091C173.266 6.09091 173.069 6.01302 172.903 5.85724C172.741 5.70147 172.659 5.5142 172.659 5.29545C172.659 5.0767 172.741 4.88944 172.903 4.73366C173.069 4.57789 173.266 4.5 173.495 4.5C173.723 4.5 173.919 4.57789 174.081 4.73366C174.247 4.88944 174.33 5.0767 174.33 5.29545C174.33 5.5142 174.247 5.70147 174.081 5.85724C173.919 6.01302 173.723 6.09091 173.495 6.09091ZM179.541 7.36364V8.35795H175.584V7.36364H179.541ZM176.737 5.53409H177.911V12.8125C177.911 13.1439 177.959 13.3925 178.055 13.5582C178.154 13.7206 178.28 13.83 178.433 13.8864C178.588 13.9394 178.753 13.9659 178.925 13.9659C179.054 13.9659 179.16 13.9593 179.243 13.946C179.326 13.9295 179.392 13.9162 179.442 13.9062L179.681 14.9602C179.601 14.9901 179.49 15.0199 179.347 15.0497C179.205 15.0829 179.024 15.0994 178.806 15.0994C178.474 15.0994 178.149 15.0282 177.831 14.8857C177.516 14.7431 177.254 14.526 177.046 14.2344C176.84 13.9427 176.737 13.5748 176.737 13.1307V5.53409ZM182.062 17.8636C181.863 17.8636 181.686 17.8471 181.53 17.8139C181.374 17.7841 181.267 17.7543 181.207 17.7244L181.505 16.6903C181.79 16.7633 182.042 16.7898 182.261 16.7699C182.48 16.75 182.673 16.6522 182.843 16.4766C183.015 16.3042 183.172 16.0241 183.315 15.6364L183.534 15.0398L180.71 7.36364H181.982L184.09 13.4489H184.17L186.278 7.36364H187.551L184.309 16.1136C184.163 16.508 183.983 16.8345 183.767 17.093C183.552 17.3549 183.302 17.5488 183.017 17.6747C182.735 17.8007 182.417 17.8636 182.062 17.8636ZM199.281 7.36364L196.457 15H195.264L192.44 7.36364H193.713L195.821 13.4489H195.9L198.008 7.36364H199.281ZM203.758 15.1591C203.022 15.1591 202.387 14.9967 201.854 14.6719C201.324 14.3438 200.914 13.8864 200.626 13.2997C200.341 12.7098 200.198 12.0237 200.198 11.2415C200.198 10.4593 200.341 9.76989 200.626 9.1733C200.914 8.57339 201.315 8.10606 201.829 7.77131C202.346 7.43324 202.949 7.2642 203.639 7.2642C204.036 7.2642 204.429 7.33049 204.817 7.46307C205.205 7.59564 205.558 7.81108 205.876 8.10938C206.194 8.40436 206.448 8.79545 206.637 9.28267C206.825 9.76989 206.92 10.3698 206.92 11.0824V11.5795H201.034V10.5653H205.727C205.727 10.1345 205.641 9.75 205.468 9.41193C205.299 9.07386 205.057 8.80705 204.742 8.61151C204.431 8.41596 204.063 8.31818 203.639 8.31818C203.171 8.31818 202.767 8.43419 202.426 8.66619C202.088 8.89489 201.827 9.19318 201.645 9.56108C201.463 9.92898 201.372 10.3234 201.372 10.7443V11.4205C201.372 11.9972 201.471 12.486 201.67 12.8871C201.872 13.2848 202.152 13.5881 202.51 13.7969C202.868 14.0024 203.284 14.1051 203.758 14.1051C204.066 14.1051 204.345 14.062 204.593 13.9759C204.845 13.8864 205.062 13.7538 205.244 13.5781C205.427 13.3991 205.568 13.1771 205.667 12.9119L206.801 13.2301C206.681 13.6146 206.481 13.9527 206.199 14.2443C205.917 14.5327 205.569 14.758 205.155 14.9205C204.741 15.0795 204.275 15.1591 203.758 15.1591ZM208.705 15V7.36364H209.838V8.51705H209.918C210.057 8.1392 210.309 7.83262 210.673 7.5973C211.038 7.36198 211.449 7.24432 211.906 7.24432C211.993 7.24432 212.1 7.24597 212.23 7.24929C212.359 7.2526 212.457 7.25758 212.523 7.2642V8.45739C212.483 8.44744 212.392 8.43253 212.249 8.41264C212.11 8.38944 211.963 8.37784 211.807 8.37784C211.436 8.37784 211.104 8.45573 210.813 8.61151C210.524 8.76397 210.296 8.97609 210.127 9.24787C209.961 9.51634 209.878 9.82292 209.878 10.1676V15H208.705ZM213.914 15V7.36364H215.087V15H213.914ZM214.51 6.09091C214.282 6.09091 214.084 6.01302 213.919 5.85724C213.756 5.70147 213.675 5.5142 213.675 5.29545C213.675 5.0767 213.756 4.88944 213.919 4.73366C214.084 4.57789 214.282 4.5 214.51 4.5C214.739 4.5 214.935 4.57789 215.097 4.73366C215.263 4.88944 215.346 5.0767 215.346 5.29545C215.346 5.5142 215.263 5.70147 215.097 5.85724C214.935 6.01302 214.739 6.09091 214.51 6.09091ZM220.637 7.36364V8.35795H216.52V7.36364H220.637ZM217.753 15V6.30966C217.753 5.87216 217.856 5.50758 218.061 5.21591C218.267 4.92424 218.534 4.70549 218.862 4.55966C219.19 4.41383 219.536 4.34091 219.901 4.34091C220.189 4.34091 220.424 4.36411 220.607 4.41051C220.789 4.45691 220.925 4.5 221.014 4.53977L220.676 5.55398C220.617 5.53409 220.534 5.50923 220.428 5.4794C220.325 5.44957 220.189 5.43466 220.02 5.43466C219.632 5.43466 219.352 5.53243 219.18 5.72798C219.011 5.92353 218.926 6.21023 218.926 6.58807V15H217.753ZM222.281 15V7.36364H223.454V15H222.281ZM222.877 6.09091C222.649 6.09091 222.452 6.01302 222.286 5.85724C222.123 5.70147 222.042 5.5142 222.042 5.29545C222.042 5.0767 222.123 4.88944 222.286 4.73366C222.452 4.57789 222.649 4.5 222.877 4.5C223.106 4.5 223.302 4.57789 223.464 4.73366C223.63 4.88944 223.713 5.0767 223.713 5.29545C223.713 5.5142 223.63 5.70147 223.464 5.85724C223.302 6.01302 223.106 6.09091 222.877 6.09091ZM228.805 15.1591C228.069 15.1591 227.434 14.9967 226.901 14.6719C226.37 14.3438 225.961 13.8864 225.673 13.2997C225.388 12.7098 225.245 12.0237 225.245 11.2415C225.245 10.4593 225.388 9.76989 225.673 9.1733C225.961 8.57339 226.362 8.10606 226.876 7.77131C227.393 7.43324 227.996 7.2642 228.686 7.2642C229.083 7.2642 229.476 7.33049 229.864 7.46307C230.252 7.59564 230.605 7.81108 230.923 8.10938C231.241 8.40436 231.494 8.79545 231.683 9.28267C231.872 9.76989 231.967 10.3698 231.967 11.0824V11.5795H226.08V10.5653H230.774C230.774 10.1345 230.687 9.75 230.515 9.41193C230.346 9.07386 230.104 8.80705 229.789 8.61151C229.478 8.41596 229.11 8.31818 228.686 8.31818C228.218 8.31818 227.814 8.43419 227.472 8.66619C227.134 8.89489 226.874 9.19318 226.692 9.56108C226.51 9.92898 226.419 10.3234 226.419 10.7443V11.4205C226.419 11.9972 226.518 12.486 226.717 12.8871C226.919 13.2848 227.199 13.5881 227.557 13.7969C227.915 14.0024 228.331 14.1051 228.805 14.1051C229.113 14.1051 229.392 14.062 229.64 13.9759C229.892 13.8864 230.109 13.7538 230.291 13.5781C230.474 13.3991 230.615 13.1771 230.714 12.9119L231.847 13.2301C231.728 13.6146 231.528 13.9527 231.246 14.2443C230.964 14.5327 230.616 14.758 230.202 14.9205C229.788 15.0795 229.322 15.1591 228.805 15.1591ZM236.635 15.1591C235.999 15.1591 235.437 14.9983 234.95 14.6768C234.463 14.352 234.081 13.8946 233.806 13.3047C233.531 12.7114 233.394 12.0104 233.394 11.2017C233.394 10.3996 233.531 9.7036 233.806 9.11364C234.081 8.52367 234.464 8.06794 234.955 7.74645C235.445 7.42495 236.012 7.2642 236.655 7.2642C237.152 7.2642 237.545 7.34706 237.833 7.51278C238.125 7.67519 238.347 7.8608 238.499 8.0696C238.655 8.27509 238.776 8.44413 238.862 8.5767H238.962V4.81818H240.135V15H239.002V13.8267H238.862C238.776 13.9659 238.654 14.1416 238.494 14.3537C238.335 14.5625 238.108 14.7498 237.813 14.9155C237.518 15.0779 237.126 15.1591 236.635 15.1591ZM236.794 14.1051C237.265 14.1051 237.663 13.9825 237.987 13.7372C238.312 13.4886 238.559 13.1456 238.728 12.7081C238.897 12.2673 238.982 11.7585 238.982 11.1818C238.982 10.6117 238.899 10.1129 238.733 9.68537C238.567 9.2545 238.322 8.91974 237.997 8.68111C237.673 8.43916 237.271 8.31818 236.794 8.31818C236.297 8.31818 235.883 8.44579 235.551 8.70099C235.223 8.95289 234.976 9.29593 234.811 9.73011C234.648 10.161 234.567 10.6449 234.567 11.1818C234.567 11.7254 234.65 12.2192 234.816 12.6634C234.985 13.1042 235.233 13.4555 235.561 13.7173C235.893 13.9759 236.304 14.1051 236.794 14.1051Z" fill="black"/>
<path d="M275.5 7.83335L278.167 5.16669H269.833L272.5 7.83335" stroke="#DE3151" stroke-width="1.5" stroke-linecap="round" stroke-linejoin="round"/>
<path d="M277.5 11.3333C277.5 13.2663 275.933 14.8333 274 14.8333C272.067 14.8333 270.5 13.2663 270.5 11.3333C270.5 9.40032 272.067 7.83331 274 7.83331C275.933 7.83331 277.5 9.40032 277.5 11.3333Z" stroke="#DE3151" stroke-width="1.5" stroke-linecap="round" stroke-linejoin="round"/>
<path d="M292.801 7.36364C292.741 6.85985 292.5 6.46875 292.075 6.19034C291.651 5.91193 291.131 5.77273 290.514 5.77273C290.063 5.77273 289.669 5.84564 289.331 5.99148C288.996 6.13731 288.734 6.33783 288.545 6.59304C288.36 6.84825 288.267 7.13826 288.267 7.46307C288.267 7.73485 288.332 7.96851 288.461 8.16406C288.594 8.3563 288.763 8.51705 288.968 8.64631C289.174 8.77225 289.389 8.87666 289.614 8.95952C289.84 9.03906 290.047 9.10369 290.236 9.15341L291.27 9.43182C291.535 9.50142 291.83 9.59754 292.155 9.72017C292.483 9.8428 292.796 10.0102 293.094 10.2223C293.396 10.4311 293.645 10.6996 293.84 11.0277C294.036 11.3558 294.134 11.7585 294.134 12.2358C294.134 12.786 293.989 13.2831 293.701 13.7273C293.416 14.1714 292.998 14.5244 292.448 14.7862C291.901 15.0481 291.237 15.179 290.455 15.179C289.725 15.179 289.094 15.0613 288.56 14.826C288.03 14.5907 287.612 14.2625 287.308 13.8416C287.006 13.4207 286.835 12.9318 286.795 12.375H288.068C288.101 12.7595 288.231 13.0777 288.456 13.3295C288.685 13.5781 288.973 13.7637 289.321 13.8864C289.672 14.0057 290.05 14.0653 290.455 14.0653C290.925 14.0653 291.348 13.9891 291.722 13.8366C292.097 13.6809 292.393 13.4654 292.612 13.1903C292.831 12.9119 292.94 12.5871 292.94 12.2159C292.94 11.8778 292.846 11.6027 292.657 11.3906C292.468 11.1785 292.219 11.0062 291.911 10.8736C291.603 10.741 291.27 10.625 290.912 10.5256L289.659 10.1676C288.864 9.93892 288.234 9.61245 287.77 9.18821C287.306 8.76397 287.074 8.20881 287.074 7.52273C287.074 6.95265 287.228 6.45549 287.536 6.03125C287.848 5.60369 288.265 5.27225 288.789 5.03693C289.316 4.7983 289.904 4.67898 290.554 4.67898C291.21 4.67898 291.794 4.79664 292.304 5.03196C292.814 5.26397 293.219 5.58215 293.517 5.98651C293.819 6.39086 293.978 6.8499 293.994 7.36364H292.801ZM300.814 11.8778V7.36364H301.987V15H300.814V13.7074H300.735C300.556 14.0952 300.277 14.425 299.899 14.6967C299.521 14.9652 299.044 15.0994 298.468 15.0994C297.99 15.0994 297.566 14.995 297.195 14.7862C296.824 14.5741 296.532 14.2559 296.32 13.8317C296.108 13.4041 296.002 12.8655 296.002 12.2159V7.36364H297.175V12.1364C297.175 12.6932 297.331 13.1373 297.642 13.4688C297.957 13.8002 298.358 13.9659 298.845 13.9659C299.137 13.9659 299.434 13.8913 299.735 13.7422C300.04 13.593 300.295 13.3643 300.501 13.0561C300.71 12.7479 300.814 12.3551 300.814 11.8778ZM304.136 17.8636V7.36364H305.27V8.5767H305.409C305.495 8.44413 305.615 8.27509 305.767 8.0696C305.923 7.8608 306.145 7.67519 306.433 7.51278C306.725 7.34706 307.119 7.2642 307.616 7.2642C308.259 7.2642 308.826 7.42495 309.317 7.74645C309.807 8.06794 310.19 8.52367 310.465 9.11364C310.74 9.7036 310.878 10.3996 310.878 11.2017C310.878 12.0104 310.74 12.7114 310.465 13.3047C310.19 13.8946 309.809 14.352 309.322 14.6768C308.835 14.9983 308.273 15.1591 307.636 15.1591C307.146 15.1591 306.753 15.0779 306.458 14.9155C306.163 14.7498 305.936 14.5625 305.777 14.3537C305.618 14.1416 305.495 13.9659 305.409 13.8267H305.31V17.8636H304.136ZM305.29 11.1818C305.29 11.7585 305.374 12.2673 305.543 12.7081C305.712 13.1456 305.959 13.4886 306.284 13.7372C306.609 13.9825 307.007 14.1051 307.477 14.1051C307.968 14.1051 308.377 13.9759 308.705 13.7173C309.037 13.4555 309.285 13.1042 309.451 12.6634C309.62 12.2192 309.705 11.7254 309.705 11.1818C309.705 10.6449 309.622 10.161 309.456 9.73011C309.294 9.29593 309.047 8.95289 308.715 8.70099C308.387 8.44579 307.974 8.31818 307.477 8.31818C307 8.31818 306.599 8.43916 306.274 8.68111C305.949 8.91974 305.704 9.2545 305.538 9.68537C305.373 10.1129 305.29 10.6117 305.29 11.1818ZM315.869 15.1591C315.134 15.1591 314.499 14.9967 313.965 14.6719C313.435 14.3438 313.026 13.8864 312.737 13.2997C312.452 12.7098 312.31 12.0237 312.31 11.2415C312.31 10.4593 312.452 9.76989 312.737 9.1733C313.026 8.57339 313.427 8.10606 313.94 7.77131C314.457 7.43324 315.061 7.2642 315.75 7.2642C316.148 7.2642 316.54 7.33049 316.928 7.46307C317.316 7.59564 317.669 7.81108 317.987 8.10938C318.305 8.40436 318.559 8.79545 318.748 9.28267C318.937 9.76989 319.031 10.3698 319.031 11.0824V11.5795H313.145V10.5653H317.838C317.838 10.1345 317.752 9.75 317.58 9.41193C317.411 9.07386 317.169 8.80705 316.854 8.61151C316.542 8.41596 316.174 8.31818 315.75 8.31818C315.283 8.31818 314.878 8.43419 314.537 8.66619C314.199 8.89489 313.939 9.19318 313.756 9.56108C313.574 9.92898 313.483 10.3234 313.483 10.7443V11.4205C313.483 11.9972 313.582 12.486 313.781 12.8871C313.983 13.2848 314.263 13.5881 314.621 13.7969C314.979 14.0024 315.395 14.1051 315.869 14.1051C316.178 14.1051 316.456 14.062 316.705 13.9759C316.956 13.8864 317.174 13.7538 317.356 13.5781C317.538 13.3991 317.679 13.1771 317.778 12.9119L318.912 13.2301C318.793 13.6146 318.592 13.9527 318.31 14.2443C318.029 14.5327 317.681 14.758 317.266 14.9205C316.852 15.0795 316.386 15.1591 315.869 15.1591ZM320.816 15V7.36364H321.95V8.51705H322.029C322.168 8.1392 322.42 7.83262 322.785 7.5973C323.149 7.36198 323.56 7.24432 324.018 7.24432C324.104 7.24432 324.212 7.24597 324.341 7.24929C324.47 7.2526 324.568 7.25758 324.634 7.2642V8.45739C324.594 8.44744 324.503 8.43253 324.361 8.41264C324.222 8.38944 324.074 8.37784 323.918 8.37784C323.547 8.37784 323.216 8.45573 322.924 8.61151C322.636 8.76397 322.407 8.97609 322.238 9.24787C322.072 9.51634 321.989 9.82292 321.989 10.1676V15H320.816ZM327.198 10.4062V15H326.025V4.81818H327.198V8.55682H327.298C327.477 8.16241 327.745 7.84919 328.103 7.61719C328.464 7.38187 328.945 7.2642 329.545 7.2642C330.065 7.2642 330.521 7.36861 330.912 7.57741C331.303 7.78291 331.606 8.09943 331.822 8.52699C332.041 8.95123 332.15 9.49148 332.15 10.1477V15H330.977V10.2273C330.977 9.62074 330.819 9.15175 330.504 8.82031C330.193 8.48556 329.76 8.31818 329.207 8.31818C328.822 8.31818 328.478 8.39938 328.173 8.56179C327.871 8.72419 327.633 8.96117 327.457 9.27273C327.285 9.58428 327.198 9.96212 327.198 10.4062ZM337.399 15.1591C336.709 15.1591 336.105 14.995 335.584 14.6669C335.067 14.3388 334.663 13.8797 334.371 13.2898C334.083 12.6998 333.939 12.0104 333.939 11.2216C333.939 10.4261 334.083 9.73177 334.371 9.13849C334.663 8.54522 335.067 8.08452 335.584 7.75639C336.105 7.42827 336.709 7.2642 337.399 7.2642C338.088 7.2642 338.691 7.42827 339.208 7.75639C339.729 8.08452 340.133 8.54522 340.422 9.13849C340.713 9.73177 340.859 10.4261 340.859 11.2216C340.859 12.0104 340.713 12.6998 340.422 13.2898C340.133 13.8797 339.729 14.3388 339.208 14.6669C338.691 14.995 338.088 15.1591 337.399 15.1591ZM337.399 14.1051C337.922 14.1051 338.353 13.9709 338.691 13.7024C339.029 13.4339 339.28 13.081 339.442 12.6435C339.605 12.206 339.686 11.732 339.686 11.2216C339.686 10.7112 339.605 10.2356 339.442 9.79474C339.28 9.35393 339.029 8.99763 338.691 8.72585C338.353 8.45407 337.922 8.31818 337.399 8.31818C336.875 8.31818 336.444 8.45407 336.106 8.72585C335.768 8.99763 335.518 9.35393 335.355 9.79474C335.193 10.2356 335.112 10.7112 335.112 11.2216C335.112 11.732 335.193 12.206 335.355 12.6435C335.518 13.081 335.768 13.4339 336.106 13.7024C336.444 13.9709 336.875 14.1051 337.399 14.1051ZM348.059 9.07386L347.005 9.37216C346.939 9.1965 346.841 9.0258 346.712 8.86009C346.586 8.69105 346.414 8.55185 346.195 8.44247C345.976 8.3331 345.696 8.27841 345.355 8.27841C344.887 8.27841 344.498 8.38613 344.186 8.60156C343.878 8.81368 343.724 9.08381 343.724 9.41193C343.724 9.7036 343.83 9.93395 344.042 10.103C344.254 10.272 344.586 10.4129 345.036 10.5256L346.17 10.804C346.853 10.9697 347.361 11.2232 347.696 11.5646C348.031 11.9027 348.198 12.3385 348.198 12.8722C348.198 13.3097 348.072 13.7008 347.82 14.0455C347.572 14.3902 347.224 14.6619 346.776 14.8608C346.329 15.0597 345.809 15.1591 345.215 15.1591C344.436 15.1591 343.792 14.9901 343.281 14.652C342.771 14.3139 342.448 13.8201 342.312 13.1705L343.426 12.892C343.532 13.303 343.732 13.6113 344.027 13.8168C344.325 14.0223 344.715 14.125 345.195 14.125C345.742 14.125 346.177 14.009 346.498 13.777C346.823 13.5417 346.985 13.2599 346.985 12.9318C346.985 12.6667 346.892 12.4446 346.707 12.2656C346.521 12.0833 346.236 11.9474 345.852 11.858L344.579 11.5597C343.88 11.3939 343.366 11.1371 343.038 10.7891C342.713 10.4377 342.551 9.99858 342.551 9.47159C342.551 9.04072 342.672 8.65956 342.914 8.32812C343.159 7.99669 343.492 7.73651 343.913 7.54758C344.337 7.35866 344.818 7.2642 345.355 7.2642C346.11 7.2642 346.704 7.42992 347.134 7.76136C347.569 8.0928 347.877 8.5303 348.059 9.07386ZM353.286 7.36364V8.35795H349.328V7.36364H353.286ZM350.482 5.53409H351.655V12.8125C351.655 13.1439 351.703 13.3925 351.799 13.5582C351.898 13.7206 352.024 13.83 352.177 13.8864C352.333 13.9394 352.497 13.9659 352.669 13.9659C352.798 13.9659 352.904 13.9593 352.987 13.946C353.07 13.9295 353.136 13.9162 353.186 13.9062L353.425 14.9602C353.345 14.9901 353.234 15.0199 353.092 15.0497C352.949 15.0829 352.768 15.0994 352.55 15.0994C352.218 15.0994 351.893 15.0282 351.575 14.8857C351.26 14.7431 350.999 14.526 350.79 14.2344C350.584 13.9427 350.482 13.5748 350.482 13.1307V5.53409Z" fill="black"/>
</svg>
