<svg width="367" height="20" viewBox="0 0 367 20" fill="none" xmlns="http://www.w3.org/2000/svg">
<path d="M7.99996 5.16675L9.16663 8.83341H12.8333L9.83329 11.1667L10.8333 14.8334L7.99996 12.5001L5.16663 14.8334L6.16663 11.1667L3.16663 8.83341H6.83329L7.99996 5.16675Z" stroke="#DE3151" stroke-width="1.5" stroke-linecap="round" stroke-linejoin="round"/>
<path d="M24.3402 15.1392C23.7171 15.1392 23.157 15.0199 22.6598 14.7812C22.166 14.5393 21.7715 14.2079 21.4766 13.7869C21.1816 13.366 21.0241 12.8854 21.0043 12.3452H22.4957C22.5322 12.7827 22.7261 13.1423 23.0774 13.424C23.4287 13.7057 23.8497 13.8466 24.3402 13.8466C24.7313 13.8466 25.0777 13.7571 25.3793 13.5781C25.6842 13.3958 25.9228 13.1456 26.0952 12.8274C26.2708 12.5092 26.3587 12.1463 26.3587 11.7386C26.3587 11.3243 26.2692 10.9548 26.0902 10.63C25.9112 10.3052 25.6643 10.05 25.3494 9.86435C25.0379 9.67874 24.6799 9.58428 24.2756 9.58097C23.9673 9.58097 23.6574 9.634 23.3459 9.74006C23.0343 9.84612 22.7824 9.98532 22.5902 10.1577L21.1832 9.94886L21.755 4.81818H27.353V6.13565H23.0327L22.7095 8.98438H22.7692C22.968 8.79214 23.2315 8.63139 23.5597 8.50213C23.8911 8.37287 24.2457 8.30824 24.6236 8.30824C25.2434 8.30824 25.7952 8.45573 26.2791 8.75071C26.7663 9.04569 27.1491 9.44839 27.4276 9.95881C27.7093 10.4659 27.8485 11.0492 27.8452 11.7088C27.8485 12.3684 27.6993 12.9567 27.3977 13.4737C27.0994 13.9908 26.6851 14.3984 26.1548 14.6967C25.6278 14.9917 25.023 15.1392 24.3402 15.1392ZM30.2912 15.0945C30.0194 15.0945 29.7857 14.9983 29.5902 14.8061C29.3946 14.6106 29.2969 14.3752 29.2969 14.1001C29.2969 13.8284 29.3946 13.5964 29.5902 13.4041C29.7857 13.2086 30.0194 13.1108 30.2912 13.1108C30.563 13.1108 30.7966 13.2086 30.9922 13.4041C31.1877 13.5964 31.2855 13.8284 31.2855 14.1001C31.2855 14.2824 31.2391 14.4498 31.1463 14.6023C31.0568 14.7514 30.9375 14.8707 30.7884 14.9602C30.6392 15.0497 30.4735 15.0945 30.2912 15.0945ZM36.4324 15.169C35.6468 15.1657 34.9757 14.9586 34.4189 14.5476C33.862 14.1366 33.4361 13.5384 33.1412 12.7528C32.8462 11.9673 32.6987 11.0211 32.6987 9.91406C32.6987 8.81037 32.8462 7.86742 33.1412 7.08523C33.4395 6.30303 33.867 5.70644 34.4238 5.29545C34.984 4.88447 35.6535 4.67898 36.4324 4.67898C37.2112 4.67898 37.8791 4.88613 38.4359 5.30043C38.9927 5.71141 39.4186 6.308 39.7136 7.0902C40.0119 7.86908 40.161 8.81037 40.161 9.91406C40.161 11.0244 40.0136 11.9723 39.7186 12.7578C39.4236 13.54 38.9977 14.1383 38.4409 14.5526C37.8841 14.9635 37.2145 15.169 36.4324 15.169ZM36.4324 13.8416C37.1217 13.8416 37.6603 13.5052 38.0481 12.8324C38.4392 12.1596 38.6348 11.1868 38.6348 9.91406C38.6348 9.06889 38.5453 8.35464 38.3663 7.77131C38.1906 7.18466 37.9371 6.74053 37.6056 6.43892C37.2775 6.134 36.8864 5.98153 36.4324 5.98153C35.7463 5.98153 35.2077 6.3196 34.8166 6.99574C34.4255 7.67187 34.2283 8.64465 34.225 9.91406C34.225 10.7625 34.3128 11.4801 34.4885 12.0668C34.6674 12.6501 34.921 13.0926 35.2491 13.3942C35.5772 13.6925 35.9717 13.8416 36.4324 13.8416Z" fill="black"/>
<circle cx="50" cy="10" r="1" fill="#6B7280"/>
<path d="M60.3224 15L64.767 6.21023V6.13565H59.6264V4.81818H66.358V6.1804L61.9283 15H60.3224ZM71.8118 15V7.36364H73.2486V8.5767H73.3281C73.4673 8.16572 73.7126 7.84257 74.0639 7.60724C74.4186 7.36861 74.8196 7.24929 75.267 7.24929C75.3598 7.24929 75.4692 7.2526 75.5952 7.25923C75.7244 7.26586 75.8255 7.27415 75.8984 7.28409V8.70597C75.8388 8.68939 75.7327 8.67116 75.5803 8.65128C75.4278 8.62808 75.2753 8.61648 75.1229 8.61648C74.7715 8.61648 74.4583 8.69105 74.1832 8.8402C73.9115 8.98603 73.696 9.18987 73.5369 9.4517C73.3778 9.71023 73.2983 10.0052 73.2983 10.3366V15H71.8118ZM80.2026 15.1541C79.4502 15.1541 78.8023 14.9934 78.2587 14.6719C77.7185 14.3471 77.3008 13.8913 77.0059 13.3047C76.7142 12.7147 76.5684 12.0237 76.5684 11.2315C76.5684 10.4493 76.7142 9.75994 77.0059 9.16335C77.3008 8.56676 77.7118 8.10109 78.2388 7.76633C78.7691 7.43158 79.3889 7.2642 80.0982 7.2642C80.5291 7.2642 80.9467 7.33546 81.351 7.47798C81.7554 7.6205 82.1183 7.84422 82.4398 8.14915C82.7613 8.45407 83.0149 8.85014 83.2005 9.33736C83.3861 9.82126 83.4789 10.4096 83.4789 11.1023V11.6293H77.4086V10.5156H82.0222C82.0222 10.1245 81.9426 9.77817 81.7836 9.47656C81.6245 9.17164 81.4007 8.93134 81.1124 8.75568C80.8274 8.58002 80.4926 8.49219 80.1081 8.49219C79.6905 8.49219 79.3259 8.59493 79.0144 8.80043C78.7061 9.0026 78.4675 9.26776 78.2985 9.59588C78.1328 9.92069 78.0499 10.2737 78.0499 10.6548V11.5249C78.0499 12.0353 78.1394 12.4695 78.3184 12.8274C78.5007 13.1854 78.7542 13.4588 79.079 13.6477C79.4038 13.8333 79.7833 13.9261 80.2175 13.9261C80.4992 13.9261 80.7561 13.8864 80.9881 13.8068C81.2201 13.724 81.4206 13.6013 81.5897 13.4389C81.7587 13.2765 81.888 13.076 81.9775 12.8374L83.3844 13.0909C83.2717 13.5052 83.0695 13.8681 82.7779 14.1797C82.4895 14.4879 82.1266 14.7282 81.6891 14.9006C81.2549 15.0696 80.7594 15.1541 80.2026 15.1541ZM91.4421 7.36364L88.6729 15H87.082L84.3079 7.36364H85.9038L87.8377 13.2401H87.9173L89.8462 7.36364H91.4421ZM92.8391 15V7.36364H94.3256V15H92.8391ZM93.5898 6.18537C93.3313 6.18537 93.1093 6.09919 92.9237 5.92685C92.7414 5.75118 92.6502 5.54238 92.6502 5.30043C92.6502 5.05516 92.7414 4.84635 92.9237 4.67401C93.1093 4.49834 93.3313 4.41051 93.5898 4.41051C93.8484 4.41051 94.0688 4.49834 94.2511 4.67401C94.4367 4.84635 94.5295 5.05516 94.5295 5.30043C94.5295 5.54238 94.4367 5.75118 94.2511 5.92685C94.0688 6.09919 93.8484 6.18537 93.5898 6.18537ZM99.6167 15.1541C98.8643 15.1541 98.2163 14.9934 97.6728 14.6719C97.1325 14.3471 96.7149 13.8913 96.4199 13.3047C96.1283 12.7147 95.9824 12.0237 95.9824 11.2315C95.9824 10.4493 96.1283 9.75994 96.4199 9.16335C96.7149 8.56676 97.1259 8.10109 97.6529 7.76633C98.1832 7.43158 98.803 7.2642 99.5123 7.2642C99.9431 7.2642 100.361 7.33546 100.765 7.47798C101.169 7.6205 101.532 7.84422 101.854 8.14915C102.175 8.45407 102.429 8.85014 102.615 9.33736C102.8 9.82126 102.893 10.4096 102.893 11.1023V11.6293H96.8226V10.5156H101.436C101.436 10.1245 101.357 9.77817 101.198 9.47656C101.039 9.17164 100.815 8.93134 100.526 8.75568C100.241 8.58002 99.9067 8.49219 99.5222 8.49219C99.1046 8.49219 98.74 8.59493 98.4284 8.80043C98.1202 9.0026 97.8816 9.26776 97.7125 9.59588C97.5468 9.92069 97.464 10.2737 97.464 10.6548V11.5249C97.464 12.0353 97.5534 12.4695 97.7324 12.8274C97.9147 13.1854 98.1683 13.4588 98.4931 13.6477C98.8179 13.8333 99.1974 13.9261 99.6316 13.9261C99.9133 13.9261 100.17 13.8864 100.402 13.8068C100.634 13.724 100.835 13.6013 101.004 13.4389C101.173 13.2765 101.302 13.076 101.392 12.8374L102.798 13.0909C102.686 13.5052 102.484 13.8681 102.192 14.1797C101.904 14.4879 101.541 14.7282 101.103 14.9006C100.669 15.0696 100.173 15.1541 99.6167 15.1541ZM106.184 15L103.937 7.36364H105.473L106.97 12.9716H107.044L108.546 7.36364H110.082L111.573 12.9467H111.648L113.134 7.36364H114.671L112.428 15H110.912L109.361 9.48651H109.247L107.695 15H106.184ZM121.804 9.22798L120.456 9.46662C120.4 9.29427 120.31 9.13021 120.188 8.97443C120.069 8.81865 119.906 8.69105 119.701 8.59162C119.495 8.49219 119.238 8.44247 118.93 8.44247C118.509 8.44247 118.158 8.53693 117.876 8.72585C117.594 8.91146 117.453 9.15175 117.453 9.44673C117.453 9.70194 117.548 9.90743 117.737 10.0632C117.926 10.219 118.231 10.3466 118.652 10.446L119.865 10.7244C120.567 10.8868 121.091 11.1371 121.436 11.4751C121.78 11.8132 121.953 12.2524 121.953 12.7926C121.953 13.25 121.82 13.6577 121.555 14.0156C121.293 14.3703 120.927 14.6487 120.456 14.8509C119.989 15.053 119.447 15.1541 118.831 15.1541C117.975 15.1541 117.278 14.9718 116.738 14.6072C116.197 14.2393 115.866 13.7173 115.743 13.0412L117.18 12.8224C117.27 13.197 117.453 13.4804 117.732 13.6726C118.01 13.8615 118.373 13.956 118.821 13.956C119.308 13.956 119.697 13.8549 119.989 13.6527C120.281 13.4472 120.426 13.197 120.426 12.902C120.426 12.6634 120.337 12.4628 120.158 12.3004C119.982 12.138 119.712 12.0154 119.348 11.9325L118.055 11.6491C117.342 11.4867 116.815 11.2282 116.474 10.8736C116.136 10.5189 115.967 10.0698 115.967 9.52628C115.967 9.07552 116.093 8.68111 116.345 8.34304C116.597 8.00497 116.945 7.74148 117.389 7.55256C117.833 7.36032 118.342 7.2642 118.915 7.2642C119.74 7.2642 120.39 7.44318 120.864 7.80114C121.338 8.15578 121.651 8.63139 121.804 9.22798Z" fill="black"/>
<path d="M59 17.7841H122.584V18.7386H59V17.7841Z" fill="black"/>
<circle cx="132" cy="10" r="1" fill="#6B7280"/>
<path d="M150.5 7.83341L153.167 5.16675H144.833L147.5 7.83341" stroke="#DE3151" stroke-width="1.5" stroke-linecap="round" stroke-linejoin="round"/>
<path d="M152.5 11.3333C152.5 13.2662 150.933 14.8333 149 14.8333C147.067 14.8333 145.5 13.2662 145.5 11.3333C145.5 9.40026 147.067 7.83325 149 7.83325C150.933 7.83325 152.5 9.40026 152.5 11.3333Z" stroke="#DE3151" stroke-width="1.5" stroke-linecap="round" stroke-linejoin="round"/>
<path d="M167.672 7.4929C167.619 7.02225 167.4 6.65767 167.016 6.39915C166.631 6.13731 166.147 6.00639 165.564 6.00639C165.146 6.00639 164.785 6.07268 164.48 6.20526C164.175 6.33452 163.938 6.51349 163.769 6.74219C163.603 6.96757 163.521 7.22443 163.521 7.51278C163.521 7.75473 163.577 7.96354 163.69 8.1392C163.806 8.31487 163.956 8.46236 164.142 8.58168C164.331 8.69768 164.533 8.79545 164.749 8.875C164.964 8.95123 165.171 9.0142 165.37 9.06392L166.364 9.32244C166.689 9.40199 167.022 9.50971 167.364 9.6456C167.705 9.78149 168.022 9.96046 168.313 10.1825C168.605 10.4046 168.84 10.6797 169.019 11.0078C169.201 11.3359 169.293 11.7287 169.293 12.1861C169.293 12.7628 169.143 13.2749 168.845 13.7223C168.55 14.1697 168.121 14.5227 167.558 14.7812C166.997 15.0398 166.32 15.169 165.524 15.169C164.762 15.169 164.102 15.0481 163.545 14.8061C162.989 14.5642 162.553 14.2211 162.238 13.777C161.923 13.3295 161.749 12.7992 161.716 12.1861H163.257C163.287 12.554 163.406 12.8606 163.615 13.1058C163.827 13.3478 164.097 13.5284 164.425 13.6477C164.757 13.7637 165.12 13.8217 165.514 13.8217C165.948 13.8217 166.335 13.7538 166.673 13.6179C167.014 13.4787 167.282 13.2865 167.478 13.0412C167.674 12.7926 167.771 12.5026 167.771 12.1712C167.771 11.8696 167.685 11.6226 167.513 11.4304C167.344 11.2382 167.113 11.0791 166.822 10.9531C166.533 10.8272 166.207 10.7161 165.842 10.62L164.639 10.2919C163.824 10.0698 163.178 9.74337 162.7 9.3125C162.226 8.88163 161.989 8.31155 161.989 7.60227C161.989 7.01562 162.148 6.50355 162.467 6.06605C162.785 5.62855 163.216 5.28883 163.759 5.04688C164.303 4.80161 164.916 4.67898 165.599 4.67898C166.288 4.67898 166.896 4.79995 167.423 5.0419C167.954 5.28385 168.371 5.61695 168.676 6.04119C168.981 6.46212 169.14 6.94602 169.153 7.4929H167.672ZM175.846 11.8331V7.36364H177.338V15H175.876V13.6776H175.797C175.621 14.0852 175.339 14.425 174.952 14.6967C174.567 14.9652 174.088 15.0994 173.515 15.0994C173.024 15.0994 172.59 14.9917 172.212 14.7763C171.838 14.5575 171.543 14.2344 171.327 13.8068C171.115 13.3793 171.009 12.8506 171.009 12.2209V7.36364H172.496V12.0419C172.496 12.5623 172.64 12.9766 172.928 13.2848C173.216 13.593 173.591 13.7472 174.052 13.7472C174.33 13.7472 174.607 13.6776 174.882 13.5384C175.16 13.3991 175.391 13.1887 175.573 12.907C175.759 12.6252 175.85 12.2673 175.846 11.8331ZM179.335 17.8636V7.36364H180.787V8.60156H180.911C180.997 8.44247 181.122 8.25852 181.284 8.04972C181.446 7.84091 181.672 7.65862 181.96 7.50284C182.249 7.34375 182.63 7.2642 183.104 7.2642C183.72 7.2642 184.27 7.41998 184.754 7.73153C185.238 8.04309 185.618 8.49219 185.893 9.07884C186.171 9.66548 186.31 10.3714 186.31 11.1967C186.31 12.022 186.173 12.7296 185.898 13.3196C185.623 13.9062 185.245 14.3587 184.764 14.6768C184.284 14.9917 183.735 15.1491 183.119 15.1491C182.655 15.1491 182.275 15.0713 181.98 14.9155C181.688 14.7597 181.46 14.5774 181.294 14.3686C181.128 14.1598 181.001 13.9742 180.911 13.8118H180.822V17.8636H179.335ZM180.792 11.1818C180.792 11.7187 180.87 12.1894 181.026 12.5938C181.181 12.9981 181.407 13.3146 181.702 13.5433C181.997 13.7687 182.358 13.8814 182.786 13.8814C183.23 13.8814 183.601 13.7637 183.899 13.5284C184.197 13.2898 184.423 12.9666 184.575 12.5589C184.731 12.1513 184.809 11.6922 184.809 11.1818C184.809 10.678 184.733 10.2256 184.58 9.82457C184.431 9.42353 184.206 9.10701 183.904 8.875C183.606 8.64299 183.233 8.52699 182.786 8.52699C182.355 8.52699 181.99 8.63802 181.692 8.86009C181.397 9.08215 181.173 9.39205 181.021 9.78977C180.868 10.1875 180.792 10.6515 180.792 11.1818ZM191.267 15.1541C190.515 15.1541 189.867 14.9934 189.323 14.6719C188.783 14.3471 188.365 13.8913 188.07 13.3047C187.779 12.7147 187.633 12.0237 187.633 11.2315C187.633 10.4493 187.779 9.75994 188.07 9.16335C188.365 8.56676 188.776 8.10109 189.303 7.76633C189.834 7.43158 190.453 7.2642 191.163 7.2642C191.594 7.2642 192.011 7.33546 192.415 7.47798C192.82 7.6205 193.183 7.84422 193.504 8.14915C193.826 8.45407 194.079 8.85014 194.265 9.33736C194.451 9.82126 194.543 10.4096 194.543 11.1023V11.6293H188.473V10.5156H193.087C193.087 10.1245 193.007 9.77817 192.848 9.47656C192.689 9.17164 192.465 8.93134 192.177 8.75568C191.892 8.58002 191.557 8.49219 191.173 8.49219C190.755 8.49219 190.39 8.59493 190.079 8.80043C189.771 9.0026 189.532 9.26776 189.363 9.59588C189.197 9.92069 189.114 10.2737 189.114 10.6548V11.5249C189.114 12.0353 189.204 12.4695 189.383 12.8274C189.565 13.1854 189.819 13.4588 190.143 13.6477C190.468 13.8333 190.848 13.9261 191.282 13.9261C191.564 13.9261 191.821 13.8864 192.053 13.8068C192.285 13.724 192.485 13.6013 192.654 13.4389C192.823 13.2765 192.952 13.076 193.042 12.8374L194.449 13.0909C194.336 13.5052 194.134 13.8681 193.842 14.1797C193.554 14.4879 193.191 14.7282 192.754 14.9006C192.319 15.0696 191.824 15.1541 191.267 15.1541ZM196.193 15V7.36364H197.629V8.5767H197.709C197.848 8.16572 198.093 7.84257 198.445 7.60724C198.799 7.36861 199.2 7.24929 199.648 7.24929C199.741 7.24929 199.85 7.2526 199.976 7.25923C200.105 7.26586 200.206 7.27415 200.279 7.28409V8.70597C200.22 8.68939 200.114 8.67116 199.961 8.65128C199.809 8.62808 199.656 8.61648 199.504 8.61648C199.152 8.61648 198.839 8.69105 198.564 8.8402C198.292 8.98603 198.077 9.18987 197.918 9.4517C197.759 9.71023 197.679 10.0052 197.679 10.3366V15H196.193ZM203.052 10.4659V15H201.566V4.81818H203.032V8.60653H203.127C203.306 8.19555 203.579 7.86908 203.947 7.62713C204.315 7.38518 204.796 7.2642 205.389 7.2642C205.913 7.2642 206.37 7.37192 206.761 7.58736C207.155 7.80279 207.46 8.12429 207.676 8.55185C207.895 8.97609 208.004 9.50639 208.004 10.1428V15H206.517V10.3217C206.517 9.7616 206.373 9.32741 206.085 9.01918C205.797 8.70762 205.395 8.55185 204.882 8.55185C204.53 8.55185 204.216 8.62642 203.937 8.77557C203.662 8.92472 203.445 9.14347 203.286 9.43182C203.13 9.71686 203.052 10.0616 203.052 10.4659ZM213.204 15.1541C212.488 15.1541 211.864 14.9901 211.33 14.6619C210.796 14.3338 210.382 13.8748 210.087 13.2848C209.792 12.6948 209.645 12.0054 209.645 11.2166C209.645 10.4245 209.792 9.73177 210.087 9.13849C210.382 8.54522 210.796 8.08452 211.33 7.75639C211.864 7.42827 212.488 7.2642 213.204 7.2642C213.92 7.2642 214.545 7.42827 215.078 7.75639C215.612 8.08452 216.026 8.54522 216.321 9.13849C216.616 9.73177 216.764 10.4245 216.764 11.2166C216.764 12.0054 216.616 12.6948 216.321 13.2848C216.026 13.8748 215.612 14.3338 215.078 14.6619C214.545 14.9901 213.92 15.1541 213.204 15.1541ZM213.209 13.9062C213.673 13.9062 214.058 13.7836 214.363 13.5384C214.667 13.2931 214.893 12.9666 215.039 12.5589C215.188 12.1513 215.262 11.7022 215.262 11.2116C215.262 10.7244 215.188 10.277 215.039 9.86932C214.893 9.45833 214.667 9.12855 214.363 8.87997C214.058 8.63139 213.673 8.5071 213.209 8.5071C212.742 8.5071 212.354 8.63139 212.046 8.87997C211.741 9.12855 211.514 9.45833 211.365 9.86932C211.219 10.277 211.146 10.7244 211.146 11.2116C211.146 11.7022 211.219 12.1513 211.365 12.5589C211.514 12.9666 211.741 13.2931 212.046 13.5384C212.354 13.7836 212.742 13.9062 213.209 13.9062ZM224.145 9.22798L222.798 9.46662C222.742 9.29427 222.652 9.13021 222.53 8.97443C222.41 8.81865 222.248 8.69105 222.042 8.59162C221.837 8.49219 221.58 8.44247 221.272 8.44247C220.851 8.44247 220.5 8.53693 220.218 8.72585C219.936 8.91146 219.795 9.15175 219.795 9.44673C219.795 9.70194 219.89 9.90743 220.079 10.0632C220.268 10.219 220.573 10.3466 220.993 10.446L222.206 10.7244C222.909 10.8868 223.433 11.1371 223.778 11.4751C224.122 11.8132 224.295 12.2524 224.295 12.7926C224.295 13.25 224.162 13.6577 223.897 14.0156C223.635 14.3703 223.269 14.6487 222.798 14.8509C222.331 15.053 221.789 15.1541 221.172 15.1541C220.317 15.1541 219.62 14.9718 219.079 14.6072C218.539 14.2393 218.208 13.7173 218.085 13.0412L219.522 12.8224C219.611 13.197 219.795 13.4804 220.074 13.6726C220.352 13.8615 220.715 13.956 221.162 13.956C221.65 13.956 222.039 13.8549 222.331 13.6527C222.622 13.4472 222.768 13.197 222.768 12.902C222.768 12.6634 222.679 12.4628 222.5 12.3004C222.324 12.138 222.054 12.0154 221.689 11.9325L220.397 11.6491C219.684 11.4867 219.157 11.2282 218.816 10.8736C218.478 10.5189 218.309 10.0698 218.309 9.52628C218.309 9.07552 218.435 8.68111 218.687 8.34304C218.939 8.00497 219.287 7.74148 219.731 7.55256C220.175 7.36032 220.684 7.2642 221.257 7.2642C222.082 7.2642 222.732 7.44318 223.206 7.80114C223.68 8.15578 223.993 8.63139 224.145 9.22798ZM229.494 7.36364V8.55682H225.322V7.36364H229.494ZM226.441 5.53409H227.928V12.7578C227.928 13.0462 227.971 13.2633 228.057 13.4091C228.143 13.5516 228.254 13.6494 228.39 13.7024C228.529 13.7521 228.68 13.777 228.842 13.777C228.962 13.777 229.066 13.7687 229.156 13.7521C229.245 13.7356 229.315 13.7223 229.364 13.7124L229.633 14.9403C229.547 14.9735 229.424 15.0066 229.265 15.0398C229.106 15.0762 228.907 15.0961 228.668 15.0994C228.277 15.1061 227.913 15.0365 227.575 14.8906C227.237 14.7448 226.963 14.5194 226.754 14.2145C226.545 13.9096 226.441 13.5268 226.441 13.0661V5.53409Z" fill="#6B7280"/>
<circle cx="240" cy="10" r="1" fill="#6B7280"/>
<path d="M250.119 15V4.81818H253.847C254.57 4.81818 255.168 4.9375 255.642 5.17614C256.116 5.41146 256.471 5.7313 256.706 6.13565C256.941 6.53669 257.059 6.98911 257.059 7.4929C257.059 7.91714 256.981 8.27509 256.825 8.56676C256.67 8.85511 256.461 9.08712 256.199 9.26278C255.94 9.43513 255.655 9.56108 255.344 9.64062V9.74006C255.682 9.75663 256.012 9.866 256.333 10.0682C256.658 10.267 256.926 10.5504 257.138 10.9183C257.351 11.2862 257.457 11.7337 257.457 12.2607C257.457 12.781 257.334 13.2483 257.089 13.6626C256.847 14.0736 256.472 14.4001 255.965 14.642C255.458 14.8807 254.81 15 254.021 15H250.119ZM251.655 13.6825H253.872C254.608 13.6825 255.135 13.54 255.453 13.255C255.771 12.9699 255.93 12.6136 255.93 12.1861C255.93 11.8646 255.849 11.5696 255.687 11.3011C255.524 11.0327 255.292 10.8189 254.991 10.6598C254.692 10.5007 254.338 10.4212 253.927 10.4212H251.655V13.6825ZM251.655 9.22301H253.713C254.058 9.22301 254.368 9.15672 254.643 9.02415C254.921 8.89157 255.142 8.70597 255.304 8.46733C255.47 8.22538 255.553 7.94034 255.553 7.61222C255.553 7.19129 255.405 6.8383 255.11 6.55327C254.815 6.26823 254.363 6.12571 253.753 6.12571H251.655V9.22301ZM262.376 15.1541C261.66 15.1541 261.035 14.9901 260.502 14.6619C259.968 14.3338 259.554 13.8748 259.259 13.2848C258.964 12.6948 258.816 12.0054 258.816 11.2166C258.816 10.4245 258.964 9.73177 259.259 9.13849C259.554 8.54522 259.968 8.08452 260.502 7.75639C261.035 7.42827 261.66 7.2642 262.376 7.2642C263.092 7.2642 263.717 7.42827 264.25 7.75639C264.784 8.08452 265.198 8.54522 265.493 9.13849C265.788 9.73177 265.936 10.4245 265.936 11.2166C265.936 12.0054 265.788 12.6948 265.493 13.2848C265.198 13.8748 264.784 14.3338 264.25 14.6619C263.717 14.9901 263.092 15.1541 262.376 15.1541ZM262.381 13.9062C262.845 13.9062 263.23 13.7836 263.534 13.5384C263.839 13.2931 264.065 12.9666 264.211 12.5589C264.36 12.1513 264.434 11.7022 264.434 11.2116C264.434 10.7244 264.36 10.277 264.211 9.86932C264.065 9.45833 263.839 9.12855 263.534 8.87997C263.23 8.63139 262.845 8.5071 262.381 8.5071C261.914 8.5071 261.526 8.63139 261.218 8.87997C260.913 9.12855 260.686 9.45833 260.537 9.86932C260.391 10.277 260.318 10.7244 260.318 11.2116C260.318 11.7022 260.391 12.1513 260.537 12.5589C260.686 12.9666 260.913 13.2931 261.218 13.5384C261.526 13.7836 261.914 13.9062 262.381 13.9062ZM267.595 15V7.36364H269.032V8.5767H269.111C269.251 8.16572 269.496 7.84257 269.847 7.60724C270.202 7.36861 270.603 7.24929 271.05 7.24929C271.143 7.24929 271.252 7.2526 271.378 7.25923C271.508 7.26586 271.609 7.27415 271.682 7.28409V8.70597C271.622 8.68939 271.516 8.67116 271.363 8.65128C271.211 8.62808 271.059 8.61648 270.906 8.61648C270.555 8.61648 270.242 8.69105 269.966 8.8402C269.695 8.98603 269.479 9.18987 269.32 9.4517C269.161 9.71023 269.081 10.0052 269.081 10.3366V15H267.595ZM275.553 15.1491C274.937 15.1491 274.387 14.9917 273.903 14.6768C273.422 14.3587 273.044 13.9062 272.769 13.3196C272.497 12.7296 272.362 12.022 272.362 11.1967C272.362 10.3714 272.499 9.66548 272.774 9.07884C273.053 8.49219 273.434 8.04309 273.918 7.73153C274.402 7.41998 274.95 7.2642 275.563 7.2642C276.037 7.2642 276.418 7.34375 276.707 7.50284C276.998 7.65862 277.224 7.84091 277.383 8.04972C277.545 8.25852 277.671 8.44247 277.761 8.60156H277.85V4.81818H279.337V15H277.885V13.8118H277.761C277.671 13.9742 277.542 14.1598 277.373 14.3686C277.207 14.5774 276.978 14.7597 276.687 14.9155C276.395 15.0713 276.017 15.1491 275.553 15.1491ZM275.881 13.8814C276.309 13.8814 276.67 13.7687 276.965 13.5433C277.263 13.3146 277.489 12.9981 277.641 12.5938C277.797 12.1894 277.875 11.7187 277.875 11.1818C277.875 10.6515 277.799 10.1875 277.646 9.78977C277.494 9.39205 277.27 9.08215 276.975 8.86009C276.68 8.63802 276.316 8.52699 275.881 8.52699C275.434 8.52699 275.061 8.64299 274.763 8.875C274.464 9.10701 274.239 9.42353 274.087 9.82457C273.938 10.2256 273.863 10.678 273.863 11.1818C273.863 11.6922 273.939 12.1513 274.092 12.5589C274.244 12.9666 274.469 13.2898 274.768 13.5284C275.069 13.7637 275.441 13.8814 275.881 13.8814ZM284.749 15.1541C283.997 15.1541 283.349 14.9934 282.806 14.6719C282.265 14.3471 281.848 13.8913 281.553 13.3047C281.261 12.7147 281.115 12.0237 281.115 11.2315C281.115 10.4493 281.261 9.75994 281.553 9.16335C281.848 8.56676 282.259 8.10109 282.786 7.76633C283.316 7.43158 283.936 7.2642 284.645 7.2642C285.076 7.2642 285.494 7.33546 285.898 7.47798C286.302 7.6205 286.665 7.84422 286.987 8.14915C287.308 8.45407 287.562 8.85014 287.747 9.33736C287.933 9.82126 288.026 10.4096 288.026 11.1023V11.6293H281.955V10.5156H286.569C286.569 10.1245 286.49 9.77817 286.33 9.47656C286.171 9.17164 285.948 8.93134 285.659 8.75568C285.374 8.58002 285.039 8.49219 284.655 8.49219C284.237 8.49219 283.873 8.59493 283.561 8.80043C283.253 9.0026 283.014 9.26776 282.845 9.59588C282.68 9.92069 282.597 10.2737 282.597 10.6548V11.5249C282.597 12.0353 282.686 12.4695 282.865 12.8274C283.048 13.1854 283.301 13.4588 283.626 13.6477C283.951 13.8333 284.33 13.9261 284.764 13.9261C285.046 13.9261 285.303 13.8864 285.535 13.8068C285.767 13.724 285.968 13.6013 286.137 13.4389C286.306 13.2765 286.435 13.076 286.524 12.8374L287.931 13.0909C287.819 13.5052 287.616 13.8681 287.325 14.1797C287.036 14.4879 286.673 14.7282 286.236 14.9006C285.802 15.0696 285.306 15.1541 284.749 15.1541ZM291.897 15.169C291.413 15.169 290.976 15.0795 290.585 14.9006C290.194 14.7183 289.884 14.4548 289.655 14.1101C289.43 13.7654 289.317 13.3428 289.317 12.8423C289.317 12.4115 289.4 12.0568 289.566 11.7784C289.731 11.5 289.955 11.2796 290.237 11.1172C290.519 10.9548 290.833 10.8321 291.181 10.7493C291.529 10.6664 291.884 10.6035 292.245 10.5604C292.703 10.5073 293.074 10.4643 293.359 10.4311C293.644 10.3946 293.851 10.3366 293.98 10.2571C294.11 10.1776 294.174 10.0483 294.174 9.86932V9.83452C294.174 9.40033 294.052 9.06392 293.806 8.82528C293.565 8.58665 293.203 8.46733 292.723 8.46733C292.222 8.46733 291.828 8.57836 291.539 8.80043C291.254 9.01918 291.057 9.26278 290.948 9.53125L289.551 9.21307C289.717 8.74905 289.958 8.37453 290.277 8.08949C290.598 7.80114 290.968 7.59233 291.385 7.46307C291.803 7.33049 292.242 7.2642 292.703 7.2642C293.008 7.2642 293.331 7.30066 293.672 7.37358C294.017 7.44318 294.338 7.57244 294.637 7.76136C294.938 7.95028 295.185 8.22041 295.377 8.57173C295.57 8.91974 295.666 9.37216 295.666 9.92898V15H294.214V13.956H294.154C294.058 14.1482 293.914 14.3371 293.722 14.5227C293.53 14.7083 293.283 14.8625 292.981 14.9851C292.68 15.1077 292.318 15.169 291.897 15.169ZM292.221 13.9759C292.632 13.9759 292.983 13.8946 293.275 13.7322C293.569 13.5698 293.793 13.3577 293.946 13.0959C294.101 12.8307 294.179 12.5473 294.179 12.2457V11.2614C294.126 11.3144 294.024 11.3641 293.871 11.4105C293.722 11.4536 293.551 11.4917 293.359 11.5249C293.167 11.5547 292.98 11.5829 292.797 11.6094C292.615 11.6326 292.462 11.6525 292.34 11.669C292.051 11.7055 291.788 11.7668 291.549 11.853C291.314 11.9392 291.125 12.0634 290.983 12.2259C290.843 12.3849 290.774 12.5971 290.774 12.8622C290.774 13.2301 290.91 13.5085 291.181 13.6974C291.453 13.883 291.8 13.9759 292.221 13.9759ZM302.483 11.8331V7.36364H303.975V15H302.513V13.6776H302.433C302.258 14.0852 301.976 14.425 301.588 14.6967C301.204 14.9652 300.725 15.0994 300.151 15.0994C299.661 15.0994 299.227 14.9917 298.849 14.7763C298.474 14.5575 298.179 14.2344 297.964 13.8068C297.752 13.3793 297.646 12.8506 297.646 12.2209V7.36364H299.132V12.0419C299.132 12.5623 299.276 12.9766 299.565 13.2848C299.853 13.593 300.228 13.7472 300.688 13.7472C300.967 13.7472 301.244 13.6776 301.519 13.5384C301.797 13.3991 302.027 13.1887 302.21 12.907C302.395 12.6252 302.486 12.2673 302.483 11.8331ZM307.145 7.36364L308.831 10.3366L310.531 7.36364H312.157L309.775 11.1818L312.176 15H310.551L308.831 12.1463L307.115 15H305.485L307.861 11.1818L305.515 7.36364H307.145ZM315.617 13.608L315.542 14.1499C315.493 14.5476 315.408 14.9619 315.289 15.3928C315.173 15.8269 315.052 16.2296 314.926 16.6009C314.803 16.9721 314.702 17.267 314.623 17.4858H313.569C313.612 17.2803 313.671 17.0019 313.748 16.6506C313.824 16.3026 313.898 15.9131 313.971 15.4822C314.044 15.0514 314.099 14.6122 314.135 14.1648L314.185 13.608H315.617ZM321.376 15V4.81818H327.69V6.14062H322.913V9.2429H327.238V10.5604H322.913V15H321.376ZM329.365 15V7.36364H330.801V8.5767H330.881C331.02 8.16572 331.265 7.84257 331.617 7.60724C331.971 7.36861 332.372 7.24929 332.82 7.24929C332.913 7.24929 333.022 7.2526 333.148 7.25923C333.277 7.26586 333.378 7.27415 333.451 7.28409V8.70597C333.392 8.68939 333.285 8.67116 333.133 8.65128C332.981 8.62808 332.828 8.61648 332.676 8.61648C332.324 8.61648 332.011 8.69105 331.736 8.8402C331.464 8.98603 331.249 9.18987 331.09 9.4517C330.931 9.71023 330.851 10.0052 330.851 10.3366V15H329.365ZM336.892 15.169C336.408 15.169 335.97 15.0795 335.579 14.9006C335.188 14.7183 334.878 14.4548 334.649 14.1101C334.424 13.7654 334.311 13.3428 334.311 12.8423C334.311 12.4115 334.394 12.0568 334.56 11.7784C334.726 11.5 334.949 11.2796 335.231 11.1172C335.513 10.9548 335.828 10.8321 336.176 10.7493C336.524 10.6664 336.878 10.6035 337.24 10.5604C337.697 10.5073 338.068 10.4643 338.353 10.4311C338.638 10.3946 338.845 10.3366 338.975 10.2571C339.104 10.1776 339.169 10.0483 339.169 9.86932V9.83452C339.169 9.40033 339.046 9.06392 338.801 8.82528C338.559 8.58665 338.197 8.46733 337.717 8.46733C337.216 8.46733 336.822 8.57836 336.534 8.80043C336.249 9.01918 336.051 9.26278 335.942 9.53125L334.545 9.21307C334.711 8.74905 334.953 8.37453 335.271 8.08949C335.592 7.80114 335.962 7.59233 336.379 7.46307C336.797 7.33049 337.236 7.2642 337.697 7.2642C338.002 7.2642 338.325 7.30066 338.666 7.37358C339.011 7.44318 339.333 7.57244 339.631 7.76136C339.932 7.95028 340.179 8.22041 340.372 8.57173C340.564 8.91974 340.66 9.37216 340.66 9.92898V15H339.208V13.956H339.149C339.052 14.1482 338.908 14.3371 338.716 14.5227C338.524 14.7083 338.277 14.8625 337.975 14.9851C337.674 15.1077 337.312 15.169 336.892 15.169ZM337.215 13.9759C337.626 13.9759 337.977 13.8946 338.269 13.7322C338.564 13.5698 338.787 13.3577 338.94 13.0959C339.096 12.8307 339.173 12.5473 339.173 12.2457V11.2614C339.12 11.3144 339.018 11.3641 338.865 11.4105C338.716 11.4536 338.545 11.4917 338.353 11.5249C338.161 11.5547 337.974 11.5829 337.791 11.6094C337.609 11.6326 337.457 11.6525 337.334 11.669C337.046 11.7055 336.782 11.7668 336.544 11.853C336.308 11.9392 336.119 12.0634 335.977 12.2259C335.838 12.3849 335.768 12.5971 335.768 12.8622C335.768 13.2301 335.904 13.5085 336.176 13.6974C336.447 13.883 336.794 13.9759 337.215 13.9759ZM344.126 10.4659V15H342.64V7.36364H344.067V8.60653H344.161C344.337 8.20218 344.612 7.87737 344.987 7.6321C345.364 7.38684 345.84 7.2642 346.413 7.2642C346.934 7.2642 347.389 7.37358 347.781 7.59233C348.172 7.80777 348.475 8.12926 348.69 8.55682C348.906 8.98437 349.013 9.51302 349.013 10.1428V15H347.527V10.3217C347.527 9.76823 347.383 9.3357 347.094 9.02415C346.806 8.70928 346.41 8.55185 345.906 8.55185C345.562 8.55185 345.255 8.62642 344.987 8.77557C344.721 8.92472 344.511 9.14347 344.355 9.43182C344.203 9.71686 344.126 10.0616 344.126 10.4659ZM354.224 15.1541C353.485 15.1541 352.848 14.9867 352.315 14.652C351.784 14.3139 351.377 13.8482 351.092 13.255C350.807 12.6617 350.664 11.9822 350.664 11.2166C350.664 10.4411 350.81 9.75663 351.102 9.16335C351.393 8.56676 351.804 8.10109 352.335 7.76633C352.865 7.43158 353.49 7.2642 354.209 7.2642C354.789 7.2642 355.306 7.37192 355.76 7.58736C356.214 7.79948 356.58 8.09777 356.859 8.48224C357.14 8.86671 357.308 9.31581 357.361 9.82955H355.914C355.835 9.47159 355.652 9.16335 355.367 8.90483C355.085 8.64631 354.708 8.51705 354.234 8.51705C353.819 8.51705 353.456 8.62642 353.145 8.84517C352.837 9.06061 352.596 9.36884 352.424 9.76989C352.252 10.1676 352.165 10.6383 352.165 11.1818C352.165 11.7386 352.25 12.2192 352.419 12.6236C352.588 13.0279 352.827 13.3411 353.135 13.5632C353.446 13.7853 353.813 13.8963 354.234 13.8963C354.515 13.8963 354.771 13.8449 354.999 13.7422C355.231 13.6361 355.425 13.4853 355.581 13.2898C355.74 13.0942 355.851 12.8589 355.914 12.5838H357.361C357.308 13.0777 357.147 13.5185 356.879 13.9062C356.61 14.294 356.25 14.599 355.8 14.821C355.352 15.0431 354.827 15.1541 354.224 15.1541ZM362.242 15.1541C361.489 15.1541 360.841 14.9934 360.298 14.6719C359.758 14.3471 359.34 13.8913 359.045 13.3047C358.753 12.7147 358.607 12.0237 358.607 11.2315C358.607 10.4493 358.753 9.75994 359.045 9.16335C359.34 8.56676 359.751 8.10109 360.278 7.76633C360.808 7.43158 361.428 7.2642 362.137 7.2642C362.568 7.2642 362.986 7.33546 363.39 7.47798C363.794 7.6205 364.157 7.84422 364.479 8.14915C364.8 8.45407 365.054 8.85014 365.24 9.33736C365.425 9.82126 365.518 10.4096 365.518 11.1023V11.6293H359.448V10.5156H364.061C364.061 10.1245 363.982 9.77817 363.823 9.47656C363.664 9.17164 363.44 8.93134 363.151 8.75568C362.866 8.58002 362.532 8.49219 362.147 8.49219C361.73 8.49219 361.365 8.59493 361.053 8.80043C360.745 9.0026 360.507 9.26776 360.338 9.59588C360.172 9.92069 360.089 10.2737 360.089 10.6548V11.5249C360.089 12.0353 360.178 12.4695 360.357 12.8274C360.54 13.1854 360.793 13.4588 361.118 13.6477C361.443 13.8333 361.822 13.9261 362.257 13.9261C362.538 13.9261 362.795 13.8864 363.027 13.8068C363.259 13.724 363.46 13.6013 363.629 13.4389C363.798 13.2765 363.927 13.076 364.017 12.8374L365.423 13.0909C365.311 13.5052 365.109 13.8681 364.817 14.1797C364.529 14.4879 364.166 14.7282 363.728 14.9006C363.294 15.0696 362.798 15.1541 362.242 15.1541Z" fill="#6B7280"/>
<path d="M249 17.7841H366.174V18.7386H249V17.7841Z" fill="#6B7280"/>
</svg>
