<svg width="123" height="20" viewBox="0 0 123 20" fill="none" xmlns="http://www.w3.org/2000/svg">
<path d="M8.00008 5.16675L9.16675 8.83341H12.8334L9.83341 11.1667L10.8334 14.8334L8.00008 12.5001L5.16675 14.8334L6.16675 11.1667L3.16675 8.83341H6.83341L8.00008 5.16675Z" stroke="#DE3151" stroke-width="1.5" stroke-linecap="round" stroke-linejoin="round"/>
<path d="M24.3402 15.1392C23.7171 15.1392 23.157 15.0199 22.6598 14.7812C22.166 14.5393 21.7715 14.2079 21.4766 13.7869C21.1816 13.366 21.0241 12.8854 21.0043 12.3452H22.4957C22.5322 12.7827 22.7261 13.1423 23.0774 13.424C23.4287 13.7057 23.8497 13.8466 24.3402 13.8466C24.7313 13.8466 25.0777 13.7571 25.3793 13.5781C25.6842 13.3958 25.9228 13.1456 26.0952 12.8274C26.2708 12.5092 26.3587 12.1463 26.3587 11.7386C26.3587 11.3243 26.2692 10.9548 26.0902 10.63C25.9112 10.3052 25.6643 10.05 25.3494 9.86435C25.0379 9.67874 24.6799 9.58428 24.2756 9.58097C23.9673 9.58097 23.6574 9.634 23.3459 9.74006C23.0343 9.84612 22.7824 9.98532 22.5902 10.1577L21.1832 9.94886L21.755 4.81818H27.353V6.13565H23.0327L22.7095 8.98438H22.7692C22.968 8.79214 23.2315 8.63139 23.5597 8.50213C23.8911 8.37287 24.2457 8.30824 24.6236 8.30824C25.2434 8.30824 25.7952 8.45573 26.2791 8.75071C26.7663 9.04569 27.1491 9.44839 27.4276 9.95881C27.7093 10.4659 27.8485 11.0492 27.8452 11.7088C27.8485 12.3684 27.6993 12.9567 27.3977 13.4737C27.0994 13.9908 26.6851 14.3984 26.1548 14.6967C25.6278 14.9917 25.023 15.1392 24.3402 15.1392ZM30.2912 15.0945C30.0194 15.0945 29.7857 14.9983 29.5902 14.8061C29.3946 14.6106 29.2969 14.3752 29.2969 14.1001C29.2969 13.8284 29.3946 13.5964 29.5902 13.4041C29.7857 13.2086 30.0194 13.1108 30.2912 13.1108C30.563 13.1108 30.7966 13.2086 30.9922 13.4041C31.1877 13.5964 31.2855 13.8284 31.2855 14.1001C31.2855 14.2824 31.2391 14.4498 31.1463 14.6023C31.0568 14.7514 30.9375 14.8707 30.7884 14.9602C30.6392 15.0497 30.4735 15.0945 30.2912 15.0945ZM36.4324 15.169C35.6468 15.1657 34.9757 14.9586 34.4189 14.5476C33.862 14.1366 33.4361 13.5384 33.1412 12.7528C32.8462 11.9673 32.6987 11.0211 32.6987 9.91406C32.6987 8.81037 32.8462 7.86742 33.1412 7.08523C33.4395 6.30303 33.867 5.70644 34.4238 5.29545C34.984 4.88447 35.6535 4.67898 36.4324 4.67898C37.2112 4.67898 37.8791 4.88613 38.4359 5.30043C38.9927 5.71141 39.4186 6.308 39.7136 7.0902C40.0119 7.86908 40.161 8.81037 40.161 9.91406C40.161 11.0244 40.0136 11.9723 39.7186 12.7578C39.4236 13.54 38.9977 14.1383 38.4409 14.5526C37.8841 14.9635 37.2145 15.169 36.4324 15.169ZM36.4324 13.8416C37.1217 13.8416 37.6603 13.5052 38.0481 12.8324C38.4392 12.1596 38.6348 11.1868 38.6348 9.91406C38.6348 9.06889 38.5453 8.35464 38.3663 7.77131C38.1906 7.18466 37.9371 6.74053 37.6056 6.43892C37.2775 6.134 36.8864 5.98153 36.4324 5.98153C35.7463 5.98153 35.2077 6.3196 34.8166 6.99574C34.4255 7.67187 34.2283 8.64465 34.225 9.91406C34.225 10.7625 34.3128 11.4801 34.4885 12.0668C34.6674 12.6501 34.921 13.0926 35.2491 13.3942C35.5772 13.6925 35.9717 13.8416 36.4324 13.8416Z" fill="black"/>
<circle cx="50" cy="10" r="1" fill="#6B7280"/>
<path d="M60.3224 15L64.767 6.21023V6.13565H59.6264V4.81818H66.358V6.1804L61.9283 15H60.3224ZM71.8118 15V7.36364H73.2486V8.5767H73.3281C73.4673 8.16572 73.7126 7.84257 74.0639 7.60724C74.4186 7.36861 74.8196 7.24929 75.267 7.24929C75.3598 7.24929 75.4692 7.2526 75.5952 7.25923C75.7244 7.26586 75.8255 7.27415 75.8984 7.28409V8.70597C75.8388 8.68939 75.7327 8.67116 75.5803 8.65128C75.4278 8.62808 75.2753 8.61648 75.1229 8.61648C74.7715 8.61648 74.4583 8.69105 74.1832 8.8402C73.9115 8.98603 73.696 9.18987 73.5369 9.4517C73.3778 9.71023 73.2983 10.0052 73.2983 10.3366V15H71.8118ZM80.2026 15.1541C79.4502 15.1541 78.8023 14.9934 78.2587 14.6719C77.7185 14.3471 77.3008 13.8913 77.0059 13.3047C76.7142 12.7147 76.5684 12.0237 76.5684 11.2315C76.5684 10.4493 76.7142 9.75994 77.0059 9.16335C77.3008 8.56676 77.7118 8.10109 78.2388 7.76633C78.7691 7.43158 79.3889 7.2642 80.0982 7.2642C80.5291 7.2642 80.9467 7.33546 81.351 7.47798C81.7554 7.6205 82.1183 7.84422 82.4398 8.14915C82.7613 8.45407 83.0149 8.85014 83.2005 9.33736C83.3861 9.82126 83.4789 10.4096 83.4789 11.1023V11.6293H77.4086V10.5156H82.0222C82.0222 10.1245 81.9426 9.77817 81.7836 9.47656C81.6245 9.17164 81.4007 8.93134 81.1124 8.75568C80.8274 8.58002 80.4926 8.49219 80.1081 8.49219C79.6905 8.49219 79.3259 8.59493 79.0144 8.80043C78.7061 9.0026 78.4675 9.26776 78.2985 9.59588C78.1328 9.92069 78.0499 10.2737 78.0499 10.6548V11.5249C78.0499 12.0353 78.1394 12.4695 78.3184 12.8274C78.5007 13.1854 78.7542 13.4588 79.079 13.6477C79.4038 13.8333 79.7833 13.9261 80.2175 13.9261C80.4992 13.9261 80.7561 13.8864 80.9881 13.8068C81.2201 13.724 81.4206 13.6013 81.5897 13.4389C81.7587 13.2765 81.888 13.076 81.9775 12.8374L83.3844 13.0909C83.2717 13.5052 83.0695 13.8681 82.7779 14.1797C82.4895 14.4879 82.1266 14.7282 81.6891 14.9006C81.2549 15.0696 80.7594 15.1541 80.2026 15.1541ZM91.4421 7.36364L88.6729 15H87.082L84.3079 7.36364H85.9038L87.8377 13.2401H87.9173L89.8462 7.36364H91.4421ZM92.8391 15V7.36364H94.3256V15H92.8391ZM93.5898 6.18537C93.3313 6.18537 93.1093 6.09919 92.9237 5.92685C92.7414 5.75118 92.6502 5.54238 92.6502 5.30043C92.6502 5.05516 92.7414 4.84635 92.9237 4.67401C93.1093 4.49834 93.3313 4.41051 93.5898 4.41051C93.8484 4.41051 94.0688 4.49834 94.2511 4.67401C94.4367 4.84635 94.5295 5.05516 94.5295 5.30043C94.5295 5.54238 94.4367 5.75118 94.2511 5.92685C94.0688 6.09919 93.8484 6.18537 93.5898 6.18537ZM99.6167 15.1541C98.8643 15.1541 98.2163 14.9934 97.6728 14.6719C97.1325 14.3471 96.7149 13.8913 96.4199 13.3047C96.1283 12.7147 95.9824 12.0237 95.9824 11.2315C95.9824 10.4493 96.1283 9.75994 96.4199 9.16335C96.7149 8.56676 97.1259 8.10109 97.6529 7.76633C98.1832 7.43158 98.803 7.2642 99.5123 7.2642C99.9431 7.2642 100.361 7.33546 100.765 7.47798C101.169 7.6205 101.532 7.84422 101.854 8.14915C102.175 8.45407 102.429 8.85014 102.615 9.33736C102.8 9.82126 102.893 10.4096 102.893 11.1023V11.6293H96.8226V10.5156H101.436C101.436 10.1245 101.357 9.77817 101.198 9.47656C101.039 9.17164 100.815 8.93134 100.526 8.75568C100.241 8.58002 99.9067 8.49219 99.5222 8.49219C99.1046 8.49219 98.74 8.59493 98.4284 8.80043C98.1202 9.0026 97.8816 9.26776 97.7125 9.59588C97.5468 9.92069 97.464 10.2737 97.464 10.6548V11.5249C97.464 12.0353 97.5534 12.4695 97.7324 12.8274C97.9147 13.1854 98.1683 13.4588 98.4931 13.6477C98.8179 13.8333 99.1974 13.9261 99.6316 13.9261C99.9133 13.9261 100.17 13.8864 100.402 13.8068C100.634 13.724 100.835 13.6013 101.004 13.4389C101.173 13.2765 101.302 13.076 101.392 12.8374L102.798 13.0909C102.686 13.5052 102.484 13.8681 102.192 14.1797C101.904 14.4879 101.541 14.7282 101.103 14.9006C100.669 15.0696 100.173 15.1541 99.6167 15.1541ZM106.184 15L103.937 7.36364H105.473L106.97 12.9716H107.044L108.546 7.36364H110.082L111.573 12.9467H111.648L113.134 7.36364H114.671L112.428 15H110.912L109.361 9.48651H109.247L107.695 15H106.184ZM121.804 9.22798L120.456 9.46662C120.4 9.29427 120.31 9.13021 120.188 8.97443C120.069 8.81865 119.906 8.69105 119.701 8.59162C119.495 8.49219 119.238 8.44247 118.93 8.44247C118.509 8.44247 118.158 8.53693 117.876 8.72585C117.594 8.91146 117.453 9.15175 117.453 9.44673C117.453 9.70194 117.548 9.90743 117.737 10.0632C117.926 10.219 118.231 10.3466 118.652 10.446L119.865 10.7244C120.567 10.8868 121.091 11.1371 121.436 11.4751C121.78 11.8132 121.953 12.2524 121.953 12.7926C121.953 13.25 121.82 13.6577 121.555 14.0156C121.293 14.3703 120.927 14.6487 120.456 14.8509C119.989 15.053 119.447 15.1541 118.831 15.1541C117.975 15.1541 117.278 14.9718 116.738 14.6072C116.197 14.2393 115.866 13.7173 115.743 13.0412L117.18 12.8224C117.27 13.197 117.453 13.4804 117.732 13.6726C118.01 13.8615 118.373 13.956 118.821 13.956C119.308 13.956 119.697 13.8549 119.989 13.6527C120.281 13.4472 120.426 13.197 120.426 12.902C120.426 12.6634 120.337 12.4628 120.158 12.3004C119.982 12.138 119.712 12.0154 119.348 11.9325L118.055 11.6491C117.342 11.4867 116.815 11.2282 116.474 10.8736C116.136 10.5189 115.967 10.0698 115.967 9.52628C115.967 9.07552 116.093 8.68111 116.345 8.34304C116.597 8.00497 116.945 7.74148 117.389 7.55256C117.833 7.36032 118.342 7.2642 118.915 7.2642C119.74 7.2642 120.39 7.44318 120.864 7.80114C121.338 8.15578 121.651 8.63139 121.804 9.22798Z" fill="black"/>
<path d="M59 17.7841H122.584V18.7386H59V17.7841Z" fill="black"/>
</svg>
