<svg width="128" height="20" viewBox="0 0 128 20" fill="none" xmlns="http://www.w3.org/2000/svg">
<path d="M6.16675 5.16675H4.50008C3.7637 5.16675 3.16675 5.7637 3.16675 6.50008V13.5001C3.16675 14.2365 3.7637 14.8334 4.50008 14.8334H11.5001C12.2365 14.8334 12.8334 14.2365 12.8334 13.5001V11.8334" stroke="black" stroke-width="1.5" stroke-linecap="round" stroke-linejoin="round"/>
<path d="M12.8333 8.16675V5.16675H9.83325" stroke="#141414" stroke-width="1.5" stroke-linecap="round" stroke-linejoin="round"/>
<path d="M12.6666 5.33325L7.83325 10.1666" stroke="#141414" stroke-width="1.5" stroke-linecap="round" stroke-linejoin="round"/>
<path d="M26.6719 7.4929C26.6188 7.02225 26.4001 6.65767 26.0156 6.39915C25.6312 6.13731 25.1473 6.00639 24.5639 6.00639C24.1463 6.00639 23.785 6.07268 23.4801 6.20526C23.1752 6.33452 22.9382 6.51349 22.7692 6.74219C22.6035 6.96757 22.5206 7.22443 22.5206 7.51278C22.5206 7.75473 22.5769 7.96354 22.6896 8.1392C22.8056 8.31487 22.9564 8.46236 23.142 8.58168C23.331 8.69768 23.5331 8.79545 23.7486 8.875C23.964 8.95123 24.1712 9.0142 24.37 9.06392L25.3643 9.32244C25.6892 9.40199 26.0223 9.50971 26.3636 9.6456C26.705 9.78149 27.0215 9.96046 27.3132 10.1825C27.6049 10.4046 27.8402 10.6797 28.0192 11.0078C28.2015 11.3359 28.2926 11.7287 28.2926 12.1861C28.2926 12.7628 28.1435 13.2749 27.8452 13.7223C27.5502 14.1697 27.121 14.5227 26.5575 14.7812C25.9974 15.0398 25.3196 15.169 24.5241 15.169C23.7618 15.169 23.1023 15.0481 22.5455 14.8061C21.9886 14.5642 21.5528 14.2211 21.2379 13.777C20.9231 13.3295 20.7491 12.7992 20.7159 12.1861H22.2571C22.2869 12.554 22.4063 12.8606 22.6151 13.1058C22.8272 13.3478 23.0973 13.5284 23.4254 13.6477C23.7569 13.7637 24.1198 13.8217 24.5142 13.8217C24.9484 13.8217 25.3345 13.7538 25.6726 13.6179C26.014 13.4787 26.2824 13.2865 26.478 13.0412C26.6735 12.7926 26.7713 12.5026 26.7713 12.1712C26.7713 11.8696 26.6851 11.6226 26.5128 11.4304C26.3438 11.2382 26.1134 11.0791 25.8217 10.9531C25.5334 10.8272 25.2069 10.7161 24.8423 10.62L23.6392 10.2919C22.8239 10.0698 22.1776 9.74337 21.7003 9.3125C21.2263 8.88163 20.9893 8.31155 20.9893 7.60227C20.9893 7.01562 21.1484 6.50355 21.4666 6.06605C21.7848 5.62855 22.2157 5.28883 22.7592 5.04688C23.3028 4.80161 23.916 4.67898 24.5987 4.67898C25.2881 4.67898 25.8963 4.79995 26.4233 5.0419C26.9536 5.28385 27.3712 5.61695 27.6761 6.04119C27.9811 6.46212 28.1402 6.94602 28.1534 7.4929H26.6719ZM31.4956 10.4659V15H30.0091V4.81818H31.4757V8.60653H31.5701C31.7491 8.19555 32.0225 7.86908 32.3904 7.62713C32.7583 7.38518 33.2389 7.2642 33.8322 7.2642C34.3559 7.2642 34.8133 7.37192 35.2044 7.58736C35.5988 7.80279 35.9037 8.12429 36.1191 8.55185C36.3379 8.97609 36.4473 9.50639 36.4473 10.1428V15H34.9608V10.3217C34.9608 9.7616 34.8166 9.32741 34.5282 9.01918C34.2399 8.70762 33.8388 8.55185 33.3251 8.55185C32.9738 8.55185 32.6589 8.62642 32.3805 8.77557C32.1054 8.92472 31.8883 9.14347 31.7292 9.43182C31.5734 9.71686 31.4956 10.0616 31.4956 10.4659ZM40.6532 15.169C40.1693 15.169 39.7318 15.0795 39.3407 14.9006C38.9496 14.7183 38.6397 14.4548 38.411 14.1101C38.1857 13.7654 38.073 13.3428 38.073 12.8423C38.073 12.4115 38.1558 12.0568 38.3216 11.7784C38.4873 11.5 38.711 11.2796 38.9927 11.1172C39.2744 10.9548 39.5893 10.8321 39.9373 10.7493C40.2853 10.6664 40.64 10.6035 41.0012 10.5604C41.4586 10.5073 41.8298 10.4643 42.1149 10.4311C42.3999 10.3946 42.6071 10.3366 42.7363 10.2571C42.8656 10.1776 42.9302 10.0483 42.9302 9.86932V9.83452C42.9302 9.40033 42.8076 9.06392 42.5623 8.82528C42.3204 8.58665 41.9591 8.46733 41.4785 8.46733C40.978 8.46733 40.5836 8.57836 40.2953 8.80043C40.0102 9.01918 39.813 9.26278 39.7037 9.53125L38.3066 9.21307C38.4724 8.74905 38.7143 8.37453 39.0325 8.08949C39.354 7.80114 39.7235 7.59233 40.1412 7.46307C40.5588 7.33049 40.9979 7.2642 41.4586 7.2642C41.7636 7.2642 42.0867 7.30066 42.4281 7.37358C42.7728 7.44318 43.0943 7.57244 43.3926 7.76136C43.6942 7.95028 43.9411 8.22041 44.1333 8.57173C44.3256 8.91974 44.4217 9.37216 44.4217 9.92898V15H42.97V13.956H42.9103C42.8142 14.1482 42.67 14.3371 42.4778 14.5227C42.2856 14.7083 42.0386 14.8625 41.737 14.9851C41.4354 15.1077 41.0742 15.169 40.6532 15.169ZM40.9764 13.9759C41.3874 13.9759 41.7387 13.8946 42.0304 13.7322C42.3253 13.5698 42.5491 13.3577 42.7015 13.0959C42.8573 12.8307 42.9352 12.5473 42.9352 12.2457V11.2614C42.8822 11.3144 42.7794 11.3641 42.627 11.4105C42.4778 11.4536 42.3071 11.4917 42.1149 11.5249C41.9226 11.5547 41.7354 11.5829 41.5531 11.6094C41.3708 11.6326 41.2183 11.6525 41.0957 11.669C40.8074 11.7055 40.5439 11.7668 40.3052 11.853C40.0699 11.9392 39.881 12.0634 39.7385 12.2259C39.5993 12.3849 39.5297 12.5971 39.5297 12.8622C39.5297 13.2301 39.6655 13.5085 39.9373 13.6974C40.2091 13.883 40.5555 13.9759 40.9764 13.9759ZM46.4016 15V7.36364H47.8384V8.5767H47.918C48.0572 8.16572 48.3024 7.84257 48.6538 7.60724C49.0084 7.36861 49.4094 7.24929 49.8569 7.24929C49.9497 7.24929 50.0591 7.2526 50.185 7.25923C50.3143 7.26586 50.4154 7.27415 50.4883 7.28409V8.70597C50.4286 8.68939 50.3226 8.67116 50.1701 8.65128C50.0176 8.62808 49.8652 8.61648 49.7127 8.61648C49.3614 8.61648 49.0482 8.69105 48.7731 8.8402C48.5013 8.98603 48.2859 9.18987 48.1268 9.4517C47.9677 9.71023 47.8881 10.0052 47.8881 10.3366V15H46.4016ZM54.7924 15.1541C54.0401 15.1541 53.3921 14.9934 52.8485 14.6719C52.3083 14.3471 51.8907 13.8913 51.5957 13.3047C51.304 12.7147 51.1582 12.0237 51.1582 11.2315C51.1582 10.4493 51.304 9.75994 51.5957 9.16335C51.8907 8.56676 52.3017 8.10109 52.8287 7.76633C53.359 7.43158 53.9788 7.2642 54.688 7.2642C55.1189 7.2642 55.5365 7.33546 55.9409 7.47798C56.3452 7.6205 56.7082 7.84422 57.0297 8.14915C57.3511 8.45407 57.6047 8.85014 57.7903 9.33736C57.9759 9.82126 58.0687 10.4096 58.0687 11.1023V11.6293H51.9984V10.5156H56.612C56.612 10.1245 56.5325 9.77817 56.3734 9.47656C56.2143 9.17164 55.9906 8.93134 55.7022 8.75568C55.4172 8.58002 55.0824 8.49219 54.698 8.49219C54.2804 8.49219 53.9158 8.59493 53.6042 8.80043C53.296 9.0026 53.0574 9.26776 52.8883 9.59588C52.7226 9.92069 52.6397 10.2737 52.6397 10.6548V11.5249C52.6397 12.0353 52.7292 12.4695 52.9082 12.8274C53.0905 13.1854 53.344 13.4588 53.6689 13.6477C53.9937 13.8333 54.3732 13.9261 54.8074 13.9261C55.0891 13.9261 55.3459 13.8864 55.5779 13.8068C55.81 13.724 56.0105 13.6013 56.1795 13.4389C56.3485 13.2765 56.4778 13.076 56.5673 12.8374L57.9743 13.0909C57.8616 13.5052 57.6594 13.8681 57.3677 14.1797C57.0794 14.4879 56.7164 14.7282 56.2789 14.9006C55.8448 15.0696 55.3493 15.1541 54.7924 15.1541Z" fill="black"/>
<path fill-rule="evenodd" clip-rule="evenodd" d="M82.9968 6.82206C82.0304 5.73992 80.419 5.44883 79.2082 6.43974C77.9974 7.43065 77.8269 9.08741 78.7778 10.2594L82.9968 14.1666L87.2158 10.2594C88.1666 9.08741 88.0169 7.42023 86.7854 6.43974C85.5538 5.45925 83.9631 5.73992 82.9968 6.82206Z" stroke="black" stroke-width="1.5" stroke-linecap="round" stroke-linejoin="round"/>
<path d="M101.672 7.4929C101.619 7.02225 101.4 6.65767 101.016 6.39915C100.631 6.13731 100.147 6.00639 99.5639 6.00639C99.1463 6.00639 98.785 6.07268 98.4801 6.20526C98.1752 6.33452 97.9382 6.51349 97.7692 6.74219C97.6035 6.96757 97.5206 7.22443 97.5206 7.51278C97.5206 7.75473 97.5769 7.96354 97.6896 8.1392C97.8056 8.31487 97.9564 8.46236 98.142 8.58168C98.331 8.69768 98.5331 8.79545 98.7486 8.875C98.964 8.95123 99.1712 9.0142 99.37 9.06392L100.364 9.32244C100.689 9.40199 101.022 9.50971 101.364 9.6456C101.705 9.78149 102.022 9.96046 102.313 10.1825C102.605 10.4046 102.84 10.6797 103.019 11.0078C103.201 11.3359 103.293 11.7287 103.293 12.1861C103.293 12.7628 103.143 13.2749 102.845 13.7223C102.55 14.1697 102.121 14.5227 101.558 14.7812C100.997 15.0398 100.32 15.169 99.5241 15.169C98.7618 15.169 98.1023 15.0481 97.5455 14.8061C96.9886 14.5642 96.5528 14.2211 96.2379 13.777C95.9231 13.3295 95.7491 12.7992 95.7159 12.1861H97.2571C97.2869 12.554 97.4063 12.8606 97.6151 13.1058C97.8272 13.3478 98.0973 13.5284 98.4254 13.6477C98.7569 13.7637 99.1198 13.8217 99.5142 13.8217C99.9484 13.8217 100.335 13.7538 100.673 13.6179C101.014 13.4787 101.282 13.2865 101.478 13.0412C101.674 12.7926 101.771 12.5026 101.771 12.1712C101.771 11.8696 101.685 11.6226 101.513 11.4304C101.344 11.2382 101.113 11.0791 100.822 10.9531C100.533 10.8272 100.207 10.7161 99.8423 10.62L98.6392 10.2919C97.8239 10.0698 97.1776 9.74337 96.7003 9.3125C96.2263 8.88163 95.9893 8.31155 95.9893 7.60227C95.9893 7.01562 96.1484 6.50355 96.4666 6.06605C96.7848 5.62855 97.2157 5.28883 97.7592 5.04688C98.3028 4.80161 98.916 4.67898 99.5987 4.67898C100.288 4.67898 100.896 4.79995 101.423 5.0419C101.954 5.28385 102.371 5.61695 102.676 6.04119C102.981 6.46212 103.14 6.94602 103.153 7.4929H101.672ZM107.231 15.169C106.747 15.169 106.31 15.0795 105.919 14.9006C105.528 14.7183 105.218 14.4548 104.989 14.1101C104.764 13.7654 104.651 13.3428 104.651 12.8423C104.651 12.4115 104.734 12.0568 104.9 11.7784C105.065 11.5 105.289 11.2796 105.571 11.1172C105.853 10.9548 106.167 10.8321 106.515 10.7493C106.863 10.6664 107.218 10.6035 107.579 10.5604C108.037 10.5073 108.408 10.4643 108.693 10.4311C108.978 10.3946 109.185 10.3366 109.314 10.2571C109.444 10.1776 109.508 10.0483 109.508 9.86932V9.83452C109.508 9.40033 109.386 9.06392 109.14 8.82528C108.898 8.58665 108.537 8.46733 108.057 8.46733C107.556 8.46733 107.162 8.57836 106.873 8.80043C106.588 9.01918 106.391 9.26278 106.282 9.53125L104.885 9.21307C105.05 8.74905 105.292 8.37453 105.611 8.08949C105.932 7.80114 106.302 7.59233 106.719 7.46307C107.137 7.33049 107.576 7.2642 108.037 7.2642C108.342 7.2642 108.665 7.30066 109.006 7.37358C109.351 7.44318 109.672 7.57244 109.971 7.76136C110.272 7.95028 110.519 8.22041 110.711 8.57173C110.904 8.91974 111 9.37216 111 9.92898V15H109.548V13.956H109.488C109.392 14.1482 109.248 14.3371 109.056 14.5227C108.864 14.7083 108.617 14.8625 108.315 14.9851C108.014 15.1077 107.652 15.169 107.231 15.169ZM107.555 13.9759C107.965 13.9759 108.317 13.8946 108.608 13.7322C108.903 13.5698 109.127 13.3577 109.28 13.0959C109.435 12.8307 109.513 12.5473 109.513 12.2457V11.2614C109.46 11.3144 109.358 11.3641 109.205 11.4105C109.056 11.4536 108.885 11.4917 108.693 11.5249C108.501 11.5547 108.314 11.5829 108.131 11.6094C107.949 11.6326 107.796 11.6525 107.674 11.669C107.385 11.7055 107.122 11.7668 106.883 11.853C106.648 11.9392 106.459 12.0634 106.317 12.2259C106.177 12.3849 106.108 12.5971 106.108 12.8622C106.108 13.2301 106.244 13.5085 106.515 13.6974C106.787 13.883 107.134 13.9759 107.555 13.9759ZM119.239 7.36364L116.47 15H114.879L112.105 7.36364H113.701L115.635 13.2401H115.714L117.643 7.36364H119.239ZM123.667 15.1541C122.915 15.1541 122.267 14.9934 121.724 14.6719C121.183 14.3471 120.766 13.8913 120.471 13.3047C120.179 12.7147 120.033 12.0237 120.033 11.2315C120.033 10.4493 120.179 9.75994 120.471 9.16335C120.766 8.56676 121.177 8.10109 121.704 7.76633C122.234 7.43158 122.854 7.2642 123.563 7.2642C123.994 7.2642 124.412 7.33546 124.816 7.47798C125.22 7.6205 125.583 7.84422 125.905 8.14915C126.226 8.45407 126.48 8.85014 126.665 9.33736C126.851 9.82126 126.944 10.4096 126.944 11.1023V11.6293H120.873V10.5156H125.487C125.487 10.1245 125.407 9.77817 125.248 9.47656C125.089 9.17164 124.866 8.93134 124.577 8.75568C124.292 8.58002 123.957 8.49219 123.573 8.49219C123.155 8.49219 122.791 8.59493 122.479 8.80043C122.171 9.0026 121.932 9.26776 121.763 9.59588C121.598 9.92069 121.515 10.2737 121.515 10.6548V11.5249C121.515 12.0353 121.604 12.4695 121.783 12.8274C121.965 13.1854 122.219 13.4588 122.544 13.6477C122.869 13.8333 123.248 13.9261 123.682 13.9261C123.964 13.9261 124.221 13.8864 124.453 13.8068C124.685 13.724 124.885 13.6013 125.055 13.4389C125.224 13.2765 125.353 13.076 125.442 12.8374L126.849 13.0909C126.737 13.5052 126.534 13.8681 126.243 14.1797C125.954 14.4879 125.591 14.7282 125.154 14.9006C124.72 15.0696 124.224 15.1541 123.667 15.1541Z" fill="black"/>
</svg>
